<?xml version="1.0" encoding="utf-8" standalone="no"?><!DOCTYPE svg PUBLIC "-//W3C//DTD SVG 1.1//EN" "http://www.w3.org/Graphics/SVG/1.1/DTD/svg11.dtd"><svg width="654px" height="764px" version="1.1" xmlns="http://www.w3.org/2000/svg"><desc /><defs><linearGradient id="fs1" x1="0.99999988079071px" y1="-1.76606356205866E-08px" x2="0.999999821186066px" y2="0.99999988079071px"><stop offset="0%" stop-color="#D3D3D3" stop-opacity="1" /><stop offset="100%" stop-color="#FFFFFF" stop-opacity="1" /></linearGradient><linearGradient id="fs2" x1="0.999999821186066px" y1="-2.98023223876953E-08px" x2="0.999999701976776px" y2="0.99999988079071px"><stop offset="0%" stop-color="#FFFFFF" stop-opacity="0.5490196" /><stop offset="100%" stop-color="#FFFFFF" stop-opacity="0.1568628" /></linearGradient><linearGradient id="fs3" x1="0.99999988079071px" y1="-8.42096525843772E-09px" x2="0.999999821186066px" y2="0.999999940395355px"><stop offset="0%" stop-color="#D3D3D3" stop-opacity="1" /><stop offset="100%" stop-color="#FFFFFF" stop-opacity="1" /></linearGradient><linearGradient id="fs4" x1="0.999999821186066px" y1="-1.44496112852721E-08px" x2="0.999999701976776px" y2="0.999999761581421px"><stop offset="0%" stop-color="#FFFFFF" stop-opacity="0.5490196" /><stop offset="100%" stop-color="#FFFFFF" stop-opacity="0.1568628" /></linearGradient><linearGradient id="fs5" x1="0.999999642372131px" y1="-4.35965404221861E-07px" x2="0.999999523162842px" y2="0.999999582767487px"><stop offset="0%" stop-color="#D3D3D3" stop-opacity="1" /><stop offset="100%" stop-color="#FFFFFF" stop-opacity="1" /></linearGradient><linearGradient id="fs6" x1="0.999999046325684px" y1="-1.48866229210398E-06px" x2="0.999998927116394px" y2="0.999998509883881px"><stop offset="0%" stop-color="#FFFFFF" stop-opacity="0.5490196" /><stop offset="100%" stop-color="#FFFFFF" stop-opacity="0.1568628" /></linearGradient><linearGradient id="fs7" x1="0.999999761581421px" y1="-7.62939436071974E-08px" x2="0.999999701976776px" y2="0.999999821186066px"><stop offset="0%" stop-color="#D3D3D3" stop-opacity="1" /><stop offset="100%" stop-color="#FFFFFF" stop-opacity="1" /></linearGradient><linearGradient id="fs8" x1="0.999999582767487px" y1="-2.63082569063045E-07px" x2="0.999999463558197px" y2="0.999999463558197px"><stop offset="0%" stop-color="#FFFFFF" stop-opacity="0.5490196" /><stop offset="100%" stop-color="#FFFFFF" stop-opacity="0.1568628" /></linearGradient><linearGradient id="fs9" x1="0.999999403953552px" y1="-2.54313164305131E-07px" x2="0.999999165534973px" y2="0.999999642372131px"><stop offset="0%" stop-color="#D3D3D3" stop-opacity="1" /><stop offset="100%" stop-color="#FFFFFF" stop-opacity="1" /></linearGradient><linearGradient id="fs10" x1="0.999999582767487px" y1="-2.9343826213335E-07px" x2="0.999999403953552px" y2="0.999999403953552px"><stop offset="0%" stop-color="#FFFFFF" stop-opacity="0.5490196" /><stop offset="100%" stop-color="#FFFFFF" stop-opacity="0.1568628" /></linearGradient><linearGradient id="fs11" x1="0.999999761581421px" y1="-1.08991351055465E-07px" x2="0.999999523162842px" y2="0.999999761581421px"><stop offset="0%" stop-color="#D3D3D3" stop-opacity="1" /><stop offset="100%" stop-color="#FFFFFF" stop-opacity="1" /></linearGradient><linearGradient id="fs12" x1="0.999999523162842px" y1="-5.58248359538993E-07px" x2="0.999999284744263px" y2="0.999999284744263px"><stop offset="0%" stop-color="#FFFFFF" stop-opacity="0.5490196" /><stop offset="100%" stop-color="#FFFFFF" stop-opacity="0.1568628" /></linearGradient><linearGradient id="fs13" x1="0.999998390674591px" y1="-2.26056135943509E-06px" x2="0.999998271465302px" y2="0.999997735023499px"><stop offset="0%" stop-color="#D3D3D3" stop-opacity="1" /><stop offset="100%" stop-color="#FFFFFF" stop-opacity="1" /></linearGradient><linearGradient id="fs14" x1="0.999996423721313px" y1="-3.814697265625E-06px" x2="0.999996364116669px" y2="0.999996185302734px"><stop offset="0%" stop-color="#FFFFFF" stop-opacity="0.5490196" /><stop offset="100%" stop-color="#FFFFFF" stop-opacity="0.1568628" /></linearGradient><linearGradient id="fs15" x1="0.999999701976776px" y1="-3.16244324949366E-07px" x2="0.999999582767487px" y2="0.999999701976776px"><stop offset="0%" stop-color="#D3D3D3" stop-opacity="1" /><stop offset="100%" stop-color="#FFFFFF" stop-opacity="1" /></linearGradient><linearGradient id="fs16" x1="0.999999582767487px" y1="-5.40134124094038E-07px" x2="0.999999523162842px" y2="0.999999463558197px"><stop offset="0%" stop-color="#FFFFFF" stop-opacity="0.5490196" /><stop offset="100%" stop-color="#FFFFFF" stop-opacity="0.1568628" /></linearGradient><linearGradient id="fs17" x1="0.999998688697815px" y1="-6.7816841919921E-07px" x2="0.999998569488525px" y2="0.999999344348907px"><stop offset="0%" stop-color="#D3D3D3" stop-opacity="1" /><stop offset="100%" stop-color="#FFFFFF" stop-opacity="1" /></linearGradient><linearGradient id="fs18" x1="0.999998807907104px" y1="-2.3475060970668E-06px" x2="0.999998688697815px" y2="0.999997675418854px"><stop offset="0%" stop-color="#FFFFFF" stop-opacity="0.5490196" /><stop offset="100%" stop-color="#FFFFFF" stop-opacity="0.1568628" /></linearGradient><linearGradient id="fs19" x1="0.999998807907104px" y1="-8.71930808443722E-07px" x2="0.999998390674591px" y2="0.999999105930328px"><stop offset="0%" stop-color="#D3D3D3" stop-opacity="1" /><stop offset="100%" stop-color="#FFFFFF" stop-opacity="1" /></linearGradient><linearGradient id="fs20" x1="0.999998807907104px" y1="-1.48866229210398E-06px" x2="0.999998390674591px" y2="0.999998509883881px"><stop offset="0%" stop-color="#FFFFFF" stop-opacity="0.5490196" /><stop offset="100%" stop-color="#FFFFFF" stop-opacity="0.1568628" /></linearGradient><linearGradient id="fs21" x1="0.999999761581421px" y1="-6.7816841919921E-07px" x2="0.999999642372131px" y2="0.999999344348907px"><stop offset="0%" stop-color="#D3D3D3" stop-opacity="1" /><stop offset="100%" stop-color="#FFFFFF" stop-opacity="1" /></linearGradient><linearGradient id="fs22" x1="0.999998331069946px" y1="-1.1737530485334E-06px" x2="0.999998211860657px" y2="0.999998807907104px"><stop offset="0%" stop-color="#FFFFFF" stop-opacity="0.5490196" /><stop offset="100%" stop-color="#FFFFFF" stop-opacity="0.1568628" /></linearGradient><clipPath id="cp1"><path d="M 77 287 L 239 287  239 359  77 359 z " /></clipPath><clipPath id="cp2"><path d="M 87 97 L 229 97  229 199  87 199 z " /></clipPath><clipPath id="cp3"><path d="M 357 97 L 509 97  509 189  357 189 z " /></clipPath><clipPath id="cp4"><path d="M 297 237 L 559 237  559 379  297 379 z " /></clipPath><clipPath id="cp5"><path d="M 27 607 L 169 607  169 699  27 699 z " /></clipPath><clipPath id="cp6"><path d="M 467 607 L 619 607  619 679  467 679 z " /></clipPath><clipPath id="cp7"><path d="M 187 607 L 449 607  449 699  187 699 z " /></clipPath></defs><g transform="matrix(1 0 0 1 0 0)"><rect x="8px" y="8px" width="150px" height="27px" fill="url(#fs1)" /><path d="M 158 16.91927 C 83 16.91927  8 16.91927  8 23.60872 L 8 8  158 8  158 16.91927 z " fill="url(#fs2)" /><rect x="8px" y="8px" width="150px" height="26px" fill="none" stroke="#000000" stroke-width="1px" stroke-dashoffset="0" stroke-linejoin="round" stroke-miterlimit="10" /><text x="59px" y="30.0911445617676px" font-family="Microsoft Sans Serif" font-size="10pt" font-weight="bold" fill="#000000">service</text><rect x="8px" y="35px" width="620px" height="453px" fill="url(#fs3)" /><path d="M 628 185.8385 C 318 185.8385  8 185.8385  8 299.1491 L 8 34.75781  628 34.75781  628 185.8385 z " fill="url(#fs4)" /><rect x="8px" y="34px" width="620px" height="453px" fill="none" stroke="#000000" stroke-width="1px" stroke-dashoffset="0" stroke-linejoin="round" stroke-miterlimit="10" /></g><g transform="matrix(1 0 0 1 0 0)"><rect x="78px" y="288px" width="160px" height="70px" fill="url(#fs5)" /><path d="M 238 311.3333 C 158 311.3333  78 311.3333  78 328.8333 L 78 288  238 288  238 311.3333 z " fill="url(#fs6)" /><rect x="78px" y="288px" width="160px" height="70px" fill="none" stroke="#000000" stroke-width="1px" stroke-dashoffset="0" stroke-linejoin="round" stroke-miterlimit="10" /><g clip-path="url(#cp1)"><text x="108px" y="305.091156005859px" font-family="Microsoft Sans Serif" font-size="10pt" font-weight="bold" font-style="italic" fill="#000000">AbstractService</text><line x1="78px" y1="309px" x2="238px" y2="309px" stroke="#000000" stroke-width="1px" stroke-dashoffset="0" stroke-linejoin="round" stroke-miterlimit="10" /><line x1="78px" y1="317px" x2="238px" y2="317px" stroke="#000000" stroke-width="1px" stroke-dashoffset="0" stroke-linejoin="round" stroke-miterlimit="10" /><text x="80px" y="335.091156005859px" font-family="Microsoft Sans Serif" font-size="10pt" fill="#000000">+ serviceB ():void</text></g></g><g transform="matrix(1 0 0 1 0 0)"><rect x="88px" y="98px" width="140px" height="100px" fill="url(#fs7)" /><path d="M 228 131.3333 C 158 131.3333  88 131.3333  88 156.3333 L 88 98  228 98  228 131.3333 z " fill="url(#fs8)" /><rect x="88px" y="98px" width="140px" height="100px" fill="none" stroke="#000000" stroke-width="1px" stroke-dashoffset="0" stroke-linejoin="round" stroke-miterlimit="10" /><g clip-path="url(#cp2)"><text x="127px" y="113.58203125px" font-family="Microsoft Sans Serif" font-size="9pt" font-style="italic" fill="#1E1E1E">«interface»</text><text x="132px" y="130.09114074707px" font-family="Microsoft Sans Serif" font-size="10pt" font-weight="bold" fill="#000000">Service</text><line x1="88px" y1="134px" x2="228px" y2="134px" stroke="#000000" stroke-width="1px" stroke-dashoffset="0" stroke-linejoin="round" stroke-miterlimit="10" /><line x1="88px" y1="142px" x2="228px" y2="142px" stroke="#000000" stroke-width="1px" stroke-dashoffset="0" stroke-linejoin="round" stroke-miterlimit="10" /><text x="90px" y="160.09114074707px" font-family="Microsoft Sans Serif" font-size="10pt" fill="#000000">+ serviceA ():void</text><text x="90px" y="177.09114074707px" font-family="Microsoft Sans Serif" font-size="10pt" fill="#000000">+ serviceB ():void</text></g></g><g transform="matrix(1 0 0 1 0 0)"><rect x="358px" y="98px" width="150px" height="90px" fill="url(#fs9)" /><path d="M 508 128 C 433 128  358 128  358 150.5 L 358 98  508 98  508 128 z " fill="url(#fs10)" /><rect x="358px" y="98px" width="150px" height="90px" fill="none" stroke="#000000" stroke-width="1px" stroke-dashoffset="0" stroke-linejoin="round" stroke-miterlimit="10" /><g clip-path="url(#cp3)"><text x="402px" y="113.58203125px" font-family="Microsoft Sans Serif" font-size="9pt" font-style="italic" fill="#1E1E1E">«interface»</text><text x="404px" y="130.09114074707px" font-family="Microsoft Sans Serif" font-size="10pt" font-weight="bold" fill="#000000">Provider</text><line x1="358px" y1="134px" x2="508px" y2="134px" stroke="#000000" stroke-width="1px" stroke-dashoffset="0" stroke-linejoin="round" stroke-miterlimit="10" /><line x1="358px" y1="142px" x2="508px" y2="142px" stroke="#000000" stroke-width="1px" stroke-dashoffset="0" stroke-linejoin="round" stroke-miterlimit="10" /><text x="360px" y="160.09114074707px" font-family="Microsoft Sans Serif" font-size="10pt" fill="#000000">+ newService ():Service</text></g></g><g transform="matrix(1 0 0 1 0 0)"><rect x="298px" y="238px" width="260px" height="140px" fill="url(#fs11)" /><path d="M 558 284.6667 C 428 284.6667  298 284.6667  298 319.6667 L 298 238  558 238  558 284.6667 z " fill="url(#fs12)" /><rect x="298px" y="238px" width="260px" height="140px" fill="none" stroke="#000000" stroke-width="1px" stroke-dashoffset="0" stroke-linejoin="round" stroke-miterlimit="10" /><g clip-path="url(#cp4)"><text x="399px" y="255.09114074707px" font-family="Microsoft Sans Serif" font-size="10pt" font-weight="bold" fill="#000000">Services</text><line x1="298px" y1="259px" x2="558px" y2="259px" stroke="#000000" stroke-width="1px" stroke-dashoffset="0" stroke-linejoin="round" stroke-miterlimit="10" /><text x="300px" y="280.091156005859px" font-family="Microsoft Sans Serif" font-size="10pt" text-decoration="underline" fill="#000000">- providers : Map</text><text x="300px" y="297.091156005859px" font-family="Microsoft Sans Serif" font-size="10pt" text-decoration="underline" fill="#000000">- DEFAULT_PROVIDER_NAME : String</text><line x1="298px" y1="300px" x2="558px" y2="300px" stroke="#000000" stroke-width="1px" stroke-dashoffset="0" stroke-linejoin="round" stroke-miterlimit="10" /><text x="300px" y="318.091156005859px" font-family="Microsoft Sans Serif" font-size="10pt" text-decoration="underline" fill="#000000">+ registerProvider (String,   Provider):void</text><text x="300px" y="335.091156005859px" font-family="Microsoft Sans Serif" font-size="10pt" text-decoration="underline" fill="#000000">+ registerDefaultProvider (Provider):void</text><text x="300px" y="352.091156005859px" font-family="Microsoft Sans Serif" font-size="10pt" text-decoration="underline" fill="#000000">+ newInstance (String):Service</text></g></g><g transform="matrix(1 0 0 1 0 0)"><rect x="8px" y="528px" width="150px" height="27px" fill="url(#fs13)" /><path d="M 158 536.9193 C 83 536.9193  8 536.9193  8 543.6087 L 8 528  158 528  158 536.9193 z " fill="url(#fs14)" /><rect x="8px" y="528px" width="150px" height="26px" fill="none" stroke="#000000" stroke-width="1px" stroke-dashoffset="0" stroke-linejoin="round" stroke-miterlimit="10" /><text x="69px" y="550.091125488281px" font-family="Microsoft Sans Serif" font-size="10pt" font-weight="bold" fill="#000000">impl</text><rect x="8px" y="555px" width="630px" height="193px" fill="url(#fs15)" /><path d="M 638 619.1719 C 323 619.1719  8 619.1719  8 667.4824 L 8 554.7578  638 554.7578  638 619.1719 z " fill="url(#fs16)" /><rect x="8px" y="554px" width="630px" height="193px" fill="none" stroke="#000000" stroke-width="1px" stroke-dashoffset="0" stroke-linejoin="round" stroke-miterlimit="10" /></g><g transform="matrix(1 0 0 1 0 0)"><rect x="28px" y="608px" width="140px" height="90px" fill="url(#fs17)" /><path d="M 168 638 C 98 638  28 638  28 660.5 L 28 608  168 608  168 638 z " fill="url(#fs18)" /><rect x="28px" y="608px" width="140px" height="90px" fill="none" stroke="#000000" stroke-width="1px" stroke-dashoffset="0" stroke-linejoin="round" stroke-miterlimit="10" /><g clip-path="url(#cp5)"><text x="58px" y="625.091125488281px" font-family="Microsoft Sans Serif" font-size="10pt" font-weight="bold" fill="#000000">BasicService</text><line x1="28px" y1="629px" x2="168px" y2="629px" stroke="#000000" stroke-width="1px" stroke-dashoffset="0" stroke-linejoin="round" stroke-miterlimit="10" /><line x1="28px" y1="637px" x2="168px" y2="637px" stroke="#000000" stroke-width="1px" stroke-dashoffset="0" stroke-linejoin="round" stroke-miterlimit="10" /><text x="30px" y="655.091125488281px" font-family="Microsoft Sans Serif" font-size="10pt" fill="#000000">+ serviceA ():void</text><text x="30px" y="672.091125488281px" font-family="Microsoft Sans Serif" font-size="10pt" fill="#000000">+ serviceB ():void</text></g></g><g transform="matrix(1 0 0 1 0 0)"><rect x="468px" y="608px" width="150px" height="70px" fill="url(#fs19)" /><path d="M 618 631.3333 C 543 631.3333  468 631.3333  468 648.8333 L 468 608  618 608  618 631.3333 z " fill="url(#fs20)" /><rect x="468px" y="608px" width="150px" height="70px" fill="none" stroke="#000000" stroke-width="1px" stroke-dashoffset="0" stroke-linejoin="round" stroke-miterlimit="10" /><g clip-path="url(#cp6)"><text x="499px" y="625.091125488281px" font-family="Microsoft Sans Serif" font-size="10pt" font-weight="bold" fill="#000000">BasicProvider</text><line x1="468px" y1="629px" x2="618px" y2="629px" stroke="#000000" stroke-width="1px" stroke-dashoffset="0" stroke-linejoin="round" stroke-miterlimit="10" /><line x1="468px" y1="637px" x2="618px" y2="637px" stroke="#000000" stroke-width="1px" stroke-dashoffset="0" stroke-linejoin="round" stroke-miterlimit="10" /><text x="470px" y="655.091125488281px" font-family="Microsoft Sans Serif" font-size="10pt" fill="#000000">+ newService ():Service</text></g></g><g transform="matrix(1 0 0 1 0 0)"><rect x="188px" y="608px" width="260px" height="90px" fill="url(#fs21)" /><path d="M 448 638 C 318 638  188 638  188 660.5 L 188 608  448 608  448 638 z " fill="url(#fs22)" /><rect x="188px" y="608px" width="260px" height="90px" fill="none" stroke="#000000" stroke-width="1px" stroke-dashoffset="0" stroke-linejoin="round" stroke-miterlimit="10" /><g clip-path="url(#cp7)"><text x="279px" y="625.091125488281px" font-family="Microsoft Sans Serif" font-size="10pt" font-weight="bold" fill="#000000">BasicImpUtil</text><line x1="188px" y1="629px" x2="448px" y2="629px" stroke="#000000" stroke-width="1px" stroke-dashoffset="0" stroke-linejoin="round" stroke-miterlimit="10" /><line x1="188px" y1="637px" x2="448px" y2="637px" stroke="#000000" stroke-width="1px" stroke-dashoffset="0" stroke-linejoin="round" stroke-miterlimit="10" /><text x="190px" y="655.091125488281px" font-family="Microsoft Sans Serif" font-size="10pt" text-decoration="underline" fill="#000000">+ registerImplementation ():void</text><text x="190px" y="672.091125488281px" font-family="Microsoft Sans Serif" font-size="10pt" text-decoration="underline" fill="#000000">+ registerImplementationAsDefault ():void</text></g></g><g transform="matrix(1 0 0 1 0 0)"><polyline points="158,288 158,198 " fill="none" stroke="#000000" stroke-width="1px" stroke-dasharray="5,4" stroke-dashoffset="0" stroke-linejoin="miter" stroke-miterlimit="10" /><polygon points="158,198 152,217 164,217 " fill="#FFFFFF" /><polygon fill="none" points="158,198 152,217 164,217 " stroke="#000000" stroke-width="1px" stroke-dashoffset="0" stroke-linejoin="round" stroke-miterlimit="10" /></g><g transform="matrix(1 0 0 1 0 0)"><polyline points="358,144 228,147 " fill="none" stroke="#000000" stroke-width="1px" stroke-dasharray="5,4" stroke-dashoffset="0" stroke-linejoin="miter" stroke-miterlimit="10" /><line x1="228px" y1="147px" x2="246px" y2="155px" stroke="#000000" stroke-width="1px" stroke-dashoffset="0" stroke-linejoin="round" stroke-miterlimit="10" /><line x1="228px" y1="147px" x2="246px" y2="138px" stroke="#000000" stroke-width="1px" stroke-dashoffset="0" stroke-linejoin="round" stroke-miterlimit="10" /></g><g transform="matrix(1 0 0 1 0 0)"><polyline points="430,238 432,188 " fill="none" stroke="#000000" stroke-width="1px" stroke-dasharray="5,4" stroke-dashoffset="0" stroke-linejoin="miter" stroke-miterlimit="10" /><line x1="432px" y1="188px" x2="423px" y2="206px" stroke="#000000" stroke-width="1px" stroke-dashoffset="0" stroke-linejoin="round" stroke-miterlimit="10" /><line x1="432px" y1="188px" x2="440px" y2="206px" stroke="#000000" stroke-width="1px" stroke-dashoffset="0" stroke-linejoin="round" stroke-miterlimit="10" /><text x="439px" y="222.58203125px" font-family="Microsoft Sans Serif" font-size="9pt" font-style="italic" fill="#1E1E1E">«use»</text></g><g transform="matrix(1 0 0 1 0 0)"><polyline points="106,608 152,358 " fill="none" stroke="#000000" stroke-width="1px" stroke-dashoffset="0" stroke-linejoin="round" stroke-miterlimit="10" /><polygon points="152,358 142,376 155,378 " fill="#FFFFFF" /><polygon fill="none" points="152,358 142,376 155,378 " stroke="#000000" stroke-width="1px" stroke-dashoffset="0" stroke-linejoin="round" stroke-miterlimit="10" /></g><g transform="matrix(1 0 0 1 0 0)"><polyline points="598,608 598,148 508,145 " fill="none" stroke="#000000" stroke-width="1px" stroke-dasharray="5,4" stroke-dashoffset="0" stroke-linejoin="miter" stroke-miterlimit="10" /><polygon points="508,145 527,152 527,139 " fill="#FFFFFF" /><polygon fill="none" points="508,145 527,152 527,139 " stroke="#000000" stroke-width="1px" stroke-dashoffset="0" stroke-linejoin="round" stroke-miterlimit="10" /></g><g transform="matrix(1 0 0 1 0 0)"><polyline points="332,608 406,378 " fill="none" stroke="#000000" stroke-width="1px" stroke-dasharray="5,4" stroke-dashoffset="0" stroke-linejoin="miter" stroke-miterlimit="10" /><line x1="406px" y1="378px" x2="392px" y2="393px" stroke="#000000" stroke-width="1px" stroke-dashoffset="0" stroke-linejoin="round" stroke-miterlimit="10" /><line x1="406px" y1="378px" x2="408px" y2="398px" stroke="#000000" stroke-width="1px" stroke-dashoffset="0" stroke-linejoin="round" stroke-miterlimit="10" /></g></svg>