<?xml version="1.0" encoding="UTF-8" standalone="no"?>
<svg
   xmlns:dc="http://purl.org/dc/elements/1.1/"
   xmlns:cc="http://creativecommons.org/ns#"
   xmlns:rdf="http://www.w3.org/1999/02/22-rdf-syntax-ns#"
   xmlns:svg="http://www.w3.org/2000/svg"
   xmlns="http://www.w3.org/2000/svg"
   xmlns:sodipodi="http://sodipodi.sourceforge.net/DTD/sodipodi-0.dtd"
   xmlns:inkscape="http://www.inkscape.org/namespaces/inkscape"
   width="419px"
   height="334px"
   version="1.1"
   id="svg2"
   inkscape:version="0.48.2 r9819"
   sodipodi:docname="CommonBuild.svg">
  <metadata
     id="metadata210">
    <rdf:RDF>
      <cc:Work
         rdf:about="">
        <dc:format>image/svg+xml</dc:format>
        <dc:type
           rdf:resource="http://purl.org/dc/dcmitype/StillImage" />
      </cc:Work>
    </rdf:RDF>
  </metadata>
  <sodipodi:namedview
     pagecolor="#ffffff"
     bordercolor="#666666"
     borderopacity="1"
     objecttolerance="10"
     gridtolerance="10"
     guidetolerance="10"
     inkscape:pageopacity="0"
     inkscape:pageshadow="2"
     inkscape:window-width="1680"
     inkscape:window-height="987"
     id="namedview208"
     showgrid="false"
     inkscape:zoom="1.9711234"
     inkscape:cx="205.06956"
     inkscape:cy="196.5382"
     inkscape:window-x="-8"
     inkscape:window-y="-8"
     inkscape:window-maximized="1"
     inkscape:current-layer="g174" />
  <desc
     id="desc4" />
  <defs
     id="defs6">
    <linearGradient
       id="fs1"
       x1="0.999999403953552px"
       y1="-9.15527323286369E-07px"
       x2="0.999999403953552px"
       y2="0.999999105930328px">
      <stop
         offset="0%"
         stop-color="#D3D3D3"
         stop-opacity="1"
         id="stop9" />
      <stop
         offset="100%"
         stop-color="#FFFFFF"
         stop-opacity="1"
         id="stop11" />
    </linearGradient>
    <linearGradient
       id="fs2"
       x1="0.999998807907104px"
       y1="-2.63082574747386E-06px"
       x2="0.999998807907104px"
       y2="0.99999737739563px">
      <stop
         offset="0%"
         stop-color="#FFFFFF"
         stop-opacity="0.5490196"
         id="stop14" />
      <stop
         offset="100%"
         stop-color="#FFFFFF"
         stop-opacity="0.1568628"
         id="stop16" />
    </linearGradient>
    <linearGradient
       id="fs3"
       x1="0.999998152256012px"
       y1="-1.22070309771516E-06px"
       x2="0.999997854232788px"
       y2="0.999998807907104px">
      <stop
         offset="0%"
         stop-color="#D3D3D3"
         stop-opacity="1"
         id="stop19" />
      <stop
         offset="100%"
         stop-color="#FFFFFF"
         stop-opacity="1"
         id="stop21" />
    </linearGradient>
    <linearGradient
       id="fs4"
       x1="0.999998152256012px"
       y1="-2.63082574747386E-06px"
       x2="0.999997854232788px"
       y2="0.99999737739563px">
      <stop
         offset="0%"
         stop-color="#FFFFFF"
         stop-opacity="0.5490196"
         id="stop24" />
      <stop
         offset="100%"
         stop-color="#FFFFFF"
         stop-opacity="0.1568628"
         id="stop26" />
    </linearGradient>
    <linearGradient
       id="fs5"
       x1="0.999999403953552px"
       y1="-3.0517577442879E-07px"
       x2="0.999999105930328px"
       y2="0.999999403953552px">
      <stop
         offset="0%"
         stop-color="#D3D3D3"
         stop-opacity="1"
         id="stop29" />
      <stop
         offset="100%"
         stop-color="#FFFFFF"
         stop-opacity="1"
         id="stop31" />
    </linearGradient>
    <linearGradient
       id="fs6"
       x1="0.999999403953552px"
       y1="-3.94623867805421E-07px"
       x2="0.999999105930328px"
       y2="0.999999344348907px">
      <stop
         offset="0%"
         stop-color="#FFFFFF"
         stop-opacity="0.5490196"
         id="stop34" />
      <stop
         offset="100%"
         stop-color="#FFFFFF"
         stop-opacity="0.1568628"
         id="stop36" />
    </linearGradient>
    <linearGradient
       id="fs7"
       x1="0.999998152256012px"
       y1="-3.05175785797474E-06px"
       x2="0.999997556209564px"
       y2="0.999996960163116px">
      <stop
         offset="0%"
         stop-color="#D3D3D3"
         stop-opacity="1"
         id="stop39" />
      <stop
         offset="100%"
         stop-color="#FFFFFF"
         stop-opacity="1"
         id="stop41" />
    </linearGradient>
    <linearGradient
       id="fs8"
       x1="0.999997556209564px"
       y1="-8.41864221001742E-06px"
       x2="0.999997556209564px"
       y2="0.999991595745087px">
      <stop
         offset="0%"
         stop-color="#FFFFFF"
         stop-opacity="0.5490196"
         id="stop44" />
      <stop
         offset="100%"
         stop-color="#FFFFFF"
         stop-opacity="0.1568628"
         id="stop46" />
    </linearGradient>
    <clipPath
       id="cp1">
      <path
         d="M 108 183 C 108 185.7614  105.7614 188  103 188 L 103 188  13 188  13 188 C 10.23856 188  8 185.7614  8 183 L 8 143  7.999969 143 C 7.999969 140.2386  10.23856 138  12.99997 138 L 13 138  103 138  103 138 C 105.7614 138  108 140.2386  108 143  108 143  108 143  108 143 L 108 143  108 183 z "
         id="path49" />
    </clipPath>
    <clipPath
       id="cp2">
      <path
         d="M 7 137 L 109 137  109 189  7 189 z "
         id="path52" />
    </clipPath>
    <clipPath
       id="cp3">
      <path
         d="M 359.9999 183 C 359.9999 185.7614  357.7614 188  355 188 L 355 188  265 188  265 188 C 262.2385 188  260 185.7614  260 183 L 260 143  259.9999 143 C 259.9999 140.2386  262.2385 138  264.9999 138 L 265 138  355 138  354.9999 138 C 357.7614 138  359.9999 140.2386  359.9999 143  359.9999 143  359.9999 143  359.9999 143 L 360 143  360 183 z "
         id="path55" />
    </clipPath>
    <clipPath
       id="cp4">
      <path
         d="M 259 137 L 361 137  361 189  259 189 z "
         id="path58" />
    </clipPath>
    <clipPath
       id="cp5">
      <path
         d="M 277.9999 52.99998 C 277.9999 55.76141  275.7614 57.99998  273 57.99998 L 273 58  183 58  183 57.99998 C 180.2386 58  178 55.76141  178 53 L 178 13  178 13 C 178 10.23857  180.2386 8  183 7.999985 L 183 8  273 8  272.9999 8 C 275.7614 7.999985  277.9999 10.23856  277.9999 12.99998  277.9999 12.99998  277.9999 13  277.9999 13 L 278 13  278 53 z "
         id="path61" />
    </clipPath>
    <clipPath
       id="cp6">
      <path
         d="M 177 7 L 279 7  279 59  177 59 z "
         id="path64" />
    </clipPath>
    <clipPath
       id="cp7">
      <path
         d="M 357.9999 313 C 357.9999 315.7614  355.7614 318  353 318 L 353 318  263 318  263 318 C 260.2385 318  258 315.7614  258 313 L 258 273  257.9999 273 C 257.9999 270.2386  260.2385 268  262.9999 268 L 263 268  353 268  352.9999 268 C 355.7614 268  357.9999 270.2386  357.9999 273  357.9999 273  357.9999 273  357.9999 273 L 358 273  358 313 z "
         id="path67" />
    </clipPath>
    <clipPath
       id="cp8">
      <path
         d="M 257 267 L 359 267  359 319  257 319 z "
         id="path70" />
    </clipPath>
  </defs>
  <g
     transform="matrix(1 0 0 1 0 0)"
     id="g72">
    <path
       d="M 108 183 C 108 185.7614  105.7614 188  103 188 L 103 188  13 188  13 188 C 10.23856 188  8 185.7614  8 183 L 8 143  7.999969 143 C 7.999969 140.2386  10.23856 138  12.99997 138 L 13 138  103 138  103 138 C 105.7614 138  108 140.2386  108 143  108 143  108 143  108 143 L 108 143  108 183 z "
       fill="url(#fs1)"
       id="path74" />
    <g
       clip-path="url(#cp1)"
       id="g76">
      <path
         d="M 108 154.6667 C 58 154.6667  7.999969 154.6667  7.999969 167.1667 L 7.999969 138  108 138  108 154.6667 z "
         fill="url(#fs2)"
         id="path78" />
    </g>
    <path
       fill="none"
       d="M 108 183 C 108 185.7614  105.7614 188  103 188 L 103 188  13 188  13 188 C 10.23856 188  8 185.7614  8 183 L 8 143  7.999969 143 C 7.999969 140.2386  10.23856 138  12.99997 138 L 13 138  103 138  103 138 C 105.7614 138  108 140.2386  108 143  108 143  108 143  108 143 L 108 143  108 183 z "
       stroke="#000000"
       stroke-width="1px"
       stroke-dashoffset="0"
       stroke-linejoin="round"
       stroke-miterlimit="10"
       id="path80" />
    <g
       clip-path="url(#cp2)"
       id="g82"
       transform="translate(6.5042188,0)">
      <text
         x="43"
         y="154.09114"
         font-size="10pt"
         font-weight="bold"
         id="text84"
         style="font-size:12.5px;font-weight:bold;fill:#000000;font-family:Microsoft Sans Serif">SVN</text>
      <text
         x="24"
         y="169.09114"
         font-size="10pt"
         font-weight="bold"
         id="text86"
         style="font-size:12.5px;font-weight:bold;fill:#000000;font-family:Microsoft Sans Serif">repository</text>
    </g>
  </g>
  <g
     transform="matrix(1 0 0 1 0 0)"
     id="g88">
    <path
       d="M 359.9999 183 C 359.9999 185.7614  357.7614 188  355 188 L 355 188  265 188  265 188 C 262.2385 188  260 185.7614  260 183 L 260 143  259.9999 143 C 259.9999 140.2386  262.2385 138  264.9999 138 L 265 138  355 138  354.9999 138 C 357.7614 138  359.9999 140.2386  359.9999 143  359.9999 143  359.9999 143  359.9999 143 L 360 143  360 183 z "
       fill="url(#fs3)"
       id="path90" />
    <g
       clip-path="url(#cp3)"
       id="g92">
      <path
         d="M 360 154.6667 C 310 154.6667  259.9999 154.6667  259.9999 167.1667 L 259.9999 138  360 138  360 154.6667 z "
         fill="url(#fs4)"
         id="path94" />
    </g>
    <path
       fill="none"
       d="M 359.9999 183 C 359.9999 185.7614  357.7614 188  355 188 L 355 188  265 188  265 188 C 262.2385 188  260 185.7614  260 183 L 260 143  259.9999 143 C 259.9999 140.2386  262.2385 138  264.9999 138 L 265 138  355 138  354.9999 138 C 357.7614 138  359.9999 140.2386  359.9999 143  359.9999 143  359.9999 143  359.9999 143 L 360 143  360 183 z "
       stroke="#000000"
       stroke-width="1px"
       stroke-dashoffset="0"
       stroke-linejoin="round"
       stroke-miterlimit="10"
       id="path96" />
    <g
       clip-path="url(#cp4)"
       id="g98"
       transform="translate(7.3353229,0)">
      <text
         x="264"
         y="154.09114"
         font-size="10pt"
         font-weight="bold"
         id="text100"
         style="font-size:12.5px;font-weight:bold;fill:#000000;font-family:Microsoft Sans Serif">CommonBuild</text>
      <text
         x="291"
         y="169.09114"
         font-size="10pt"
         font-weight="bold"
         id="text102"
         style="font-size:12.5px;font-weight:bold;fill:#000000;font-family:Microsoft Sans Serif">client</text>
    </g>
  </g>
  <g
     transform="matrix(1 0 0 1 0 0)"
     id="g104">
    <path
       d="M 277.9999 52.99998 C 277.9999 55.76141  275.7614 57.99998  273 57.99998 L 273 58  183 58  183 57.99998 C 180.2386 58  178 55.76141  178 53 L 178 13  178 13 C 178 10.23857  180.2386 8  183 7.999985 L 183 8  273 8  272.9999 8 C 275.7614 7.999985  277.9999 10.23856  277.9999 12.99998  277.9999 12.99998  277.9999 13  277.9999 13 L 278 13  278 53 z "
       fill="url(#fs5)"
       id="path106" />
    <g
       clip-path="url(#cp5)"
       id="g108">
      <path
         d="M 278 24.66666 C 228 24.66666  178 24.66666  178 37.16666 L 178 7.999985  278 7.999985  278 24.66666 z "
         fill="url(#fs6)"
         id="path110" />
    </g>
    <path
       fill="none"
       d="M 277.9999 52.99998 C 277.9999 55.76141  275.7614 57.99998  273 57.99998 L 273 58  183 58  183 57.99998 C 180.2386 58  178 55.76141  178 53 L 178 13  178 13 C 178 10.23857  180.2386 8  183 7.999985 L 183 8  273 8  272.9999 8 C 275.7614 7.999985  277.9999 10.23856  277.9999 12.99998  277.9999 12.99998  277.9999 13  277.9999 13 L 278 13  278 53 z "
       stroke="#000000"
       stroke-width="1px"
       stroke-dashoffset="0"
       stroke-linejoin="round"
       stroke-miterlimit="10"
       id="path112" />
    <g
       clip-path="url(#cp6)"
       id="g114"
       transform="translate(6.9283142,0)">
      <text
         x="189"
         y="24.091145"
         font-size="10pt"
         font-weight="bold"
         id="text116"
         style="font-size:12.5px;font-weight:bold;fill:#000000;font-family:Microsoft Sans Serif">Eclipse IDE</text>
    </g>
  </g>
  <g
     transform="matrix(1 0 0 1 0 0)"
     id="g118">
    <path
       d="M 357.9999 313 C 357.9999 315.7614  355.7614 318  353 318 L 353 318  263 318  263 318 C 260.2385 318  258 315.7614  258 313 L 258 273  257.9999 273 C 257.9999 270.2386  260.2385 268  262.9999 268 L 263 268  353 268  352.9999 268 C 355.7614 268  357.9999 270.2386  357.9999 273  357.9999 273  357.9999 273  357.9999 273 L 358 273  358 313 z "
       fill="url(#fs7)"
       id="path120" />
    <g
       clip-path="url(#cp7)"
       id="g122">
      <path
         d="M 358 284.6667 C 308 284.6667  257.9999 284.6667  257.9999 297.1667 L 257.9999 268  358 268  358 284.6667 z "
         fill="url(#fs8)"
         id="path124" />
    </g>
    <path
       fill="none"
       d="M 357.9999 313 C 357.9999 315.7614  355.7614 318  353 318 L 353 318  263 318  263 318 C 260.2385 318  258 315.7614  258 313 L 258 273  257.9999 273 C 257.9999 270.2386  260.2385 268  262.9999 268 L 263 268  353 268  352.9999 268 C 355.7614 268  357.9999 270.2386  357.9999 273  357.9999 273  357.9999 273  357.9999 273 L 358 273  358 313 z "
       stroke="#000000"
       stroke-width="1px"
       stroke-dashoffset="0"
       stroke-linejoin="round"
       stroke-miterlimit="10"
       id="path126" />
    <g
       clip-path="url(#cp8)"
       id="g128">
      <text
         x="289.99973"
         y="284.09116"
         font-size="10pt"
         font-weight="bold"
         id="text130"
         style="font-size:12.5px;font-weight:bold;fill:#000000;font-family:Microsoft Sans Serif">Binary</text>
      <text
         x="281.90799"
         y="299.09116"
         font-size="10pt"
         font-weight="bold"
         id="text132"
         style="font-size:12.5px;font-weight:bold;fill:#000000;font-family:Microsoft Sans Serif">repostory</text>
    </g>
  </g>
  <g
     transform="matrix(1 0 0 1 0 0)"
     id="g134">
    <polyline
       points="91,138 195,58 "
       fill="none"
       stroke="#000000"
       stroke-width="1px"
       stroke-dashoffset="0"
       stroke-linejoin="round"
       stroke-miterlimit="10"
       id="polyline136" />
    <line
       x1="195px"
       y1="58px"
       x2="175px"
       y2="62px"
       stroke="#000000"
       stroke-width="1px"
       stroke-dashoffset="0"
       stroke-linejoin="round"
       stroke-miterlimit="10"
       id="line138" />
    <line
       x1="195px"
       y1="58px"
       x2="186px"
       y2="76px"
       stroke="#000000"
       stroke-width="1px"
       stroke-dashoffset="0"
       stroke-linejoin="round"
       stroke-miterlimit="10"
       id="line140" />
    <text
       x="63px"
       y="93.0911407470703px"
       font-family="Microsoft Sans Serif"
       font-size="10pt"
       font-weight="bold"
       fill="#000000"
       id="text142">1. checkout</text>
  </g>
  <g
     transform="matrix(1 0 0 1 0 0)"
     id="g144">
    <path
       fill="none"
       d="M 251 58 C 255.5 63  270 74.66666  278 88  286 101.3333  295.5 129.6667  299 138 "
       stroke="#000000"
       stroke-width="1px"
       stroke-dashoffset="0"
       stroke-linejoin="round"
       stroke-miterlimit="10"
       id="path146" />
    <line
       x1="299px"
       y1="138px"
       x2="300px"
       y2="118px"
       stroke="#000000"
       stroke-width="1px"
       stroke-dashoffset="0"
       stroke-linejoin="round"
       stroke-miterlimit="10"
       id="line148" />
    <line
       x1="299px"
       y1="138px"
       x2="284px"
       y2="125px"
       stroke="#000000"
       stroke-width="1px"
       stroke-dashoffset="0"
       stroke-linejoin="round"
       stroke-miterlimit="10"
       id="line150" />
    <text
       x="284.62451"
       y="98.076492"
       font-size="10pt"
       font-weight="bold"
       id="text152"
       style="font-size:12.5px;font-weight:bold;fill:#000000;font-family:Microsoft Sans Serif">5. release</text>
  </g>
  <g
     transform="matrix(1 0 0 1 0 0)"
     id="g154">
    <polyline
       points="260,163 108,163 "
       fill="none"
       stroke="#000000"
       stroke-width="1px"
       stroke-dashoffset="0"
       stroke-linejoin="round"
       stroke-miterlimit="10"
       id="polyline156" />
    <line
       x1="108px"
       y1="163px"
       x2="126px"
       y2="171px"
       stroke="#000000"
       stroke-width="1px"
       stroke-dashoffset="0"
       stroke-linejoin="round"
       stroke-miterlimit="10"
       id="line158" />
    <line
       x1="108px"
       y1="163px"
       x2="126px"
       y2="155px"
       stroke="#000000"
       stroke-width="1px"
       stroke-dashoffset="0"
       stroke-linejoin="round"
       stroke-miterlimit="10"
       id="line160" />
    <text
       x="148px"
       y="158.09114074707px"
       font-family="Microsoft Sans Serif"
       font-size="10pt"
       font-weight="bold"
       fill="#000000"
       id="text162">6. tag version</text>
  </g>
  <g
     transform="matrix(1 0 0 1 0 0)"
     id="g164">
    <path
       fill="none"
       d="M 238 58 C 241.3333 66.33333  250 94.66666  258 108  266 121.3333  281.3333 133  286 138 "
       stroke="#000000"
       stroke-width="1px"
       stroke-dashoffset="0"
       stroke-linejoin="round"
       stroke-miterlimit="10"
       id="path166" />
    <line
       x1="286px"
       y1="138px"
       x2="280px"
       y2="119px"
       stroke="#000000"
       stroke-width="1px"
       stroke-dashoffset="0"
       stroke-linejoin="round"
       stroke-miterlimit="10"
       id="line168" />
    <line
       x1="286px"
       y1="138px"
       x2="267px"
       y2="131px"
       stroke="#000000"
       stroke-width="1px"
       stroke-dashoffset="0"
       stroke-linejoin="round"
       stroke-miterlimit="10"
       id="line170" />
    <text
       x="181px"
       y="107.09114074707px"
       font-family="Microsoft Sans Serif"
       font-size="10pt"
       font-weight="bold"
       fill="#000000"
       id="text172">3. compile</text>
  </g>
  <g
     transform="matrix(1 0 0 1 0 0)"
     id="g174">
    <path
       fill="none"
       d="M 302 188 C 299.6667 194.6666  288.3333 214.6666  288 228  287.6667 241.3333  298 261.3333  300 268 "
       stroke="#000000"
       stroke-width="1px"
       stroke-dashoffset="0"
       stroke-linejoin="round"
       stroke-miterlimit="10"
       id="path176" />
    <line
       x1="300px"
       y1="268px"
       x2="303px"
       y2="248px"
       stroke="#000000"
       stroke-width="1px"
       stroke-dashoffset="0"
       stroke-linejoin="round"
       stroke-miterlimit="10"
       id="line178" />
    <line
       x1="300px"
       y1="268px"
       x2="287px"
       y2="253px"
       stroke="#000000"
       stroke-width="1px"
       stroke-dashoffset="0"
       stroke-linejoin="round"
       stroke-miterlimit="10"
       id="line180" />
    <text
       x="216.1758"
       y="221.00323"
       font-size="10pt"
       font-weight="bold"
       id="text182"
       style="font-size:12.5px;font-weight:bold;fill:#000000;font-family:Microsoft Sans Serif">4. resolve</text>
    <text
       x="204.1758"
       y="237.00323"
       font-size="10pt"
       font-weight="bold"
       id="text184"
       style="font-size:12.5px;font-weight:bold;fill:#000000;font-family:Microsoft Sans Serif">dependencies</text>
  </g>
  <g
     transform="matrix(1 0 0 1 0 0)"
     id="g186">
    <path
       d="M 317 188 C 318.8333 194.6666  328.1666 214.6666  328 228  327.8333 241.3333  318 261.3333  316 268 "
       stroke-miterlimit="10"
       id="path188"
       stroke-dashoffset="0"
       stroke-linejoin="round"
       stroke-width="1px"
       stroke="#000000"
       fill="none" />
    <line
       x1="316px"
       y1="268px"
       x2="329px"
       y2="253px"
       stroke-miterlimit="10"
       id="line190"
       stroke-dashoffset="0"
       stroke-linejoin="round"
       stroke-width="1px"
       stroke="#000000" />
    <line
       x1="316px"
       y1="268px"
       x2="313px"
       y2="248px"
       stroke-miterlimit="10"
       id="line192"
       stroke-dashoffset="0"
       stroke-linejoin="round"
       stroke-width="1px"
       stroke="#000000" />
    <text
       x="329px"
       y="227.09114074707px"
       font-size="10pt"
       font-weight="bold"
       id="text194"
       font-family="Microsoft Sans Serif"
       fill="#000000">7. deploy </text>
    <text
       x="338px"
       y="243.09114074707px"
       font-size="10pt"
       font-weight="bold"
       id="text196"
       font-family="Microsoft Sans Serif"
       fill="#000000">binary</text>
  </g>
  <g
     transform="matrix(1 0 0 1 0 0)"
     id="g198">
    <path
       fill="none"
       d="M 278 28 C 284.6667 26.33333  309.6666 16.33333  318 18  326.3333 19.66667  328 31.33333  328 38  328 44.66666  326.3333 56.33333  318 58  309.6666 59.66666  284.6666 49.66666  278 48 "
       stroke="#000000"
       stroke-width="1px"
       stroke-dashoffset="0"
       stroke-linejoin="round"
       stroke-miterlimit="10"
       id="path200" />
    <line
       x1="278px"
       y1="48px"
       x2="294px"
       y2="61px"
       stroke="#000000"
       stroke-width="1px"
       stroke-dashoffset="0"
       stroke-linejoin="round"
       stroke-miterlimit="10"
       id="line202" />
    <line
       x1="278px"
       y1="48px"
       x2="298px"
       y2="44px"
       stroke="#000000"
       stroke-width="1px"
       stroke-dashoffset="0"
       stroke-linejoin="round"
       stroke-miterlimit="10"
       id="line204" />
    <text
       x="304px"
       y="73.0911407470703px"
       font-family="Microsoft Sans Serif"
       font-size="10pt"
       font-weight="bold"
       fill="#000000"
       id="text206">2. modification</text>
  </g>
</svg>
