<?xml version="1.0" encoding="utf-8" standalone="no"?><!DOCTYPE svg PUBLIC "-//W3C//DTD SVG 1.1//EN" "http://www.w3.org/Graphics/SVG/1.1/DTD/svg11.dtd"><svg width="784px" height="654px" version="1.1" xmlns="http://www.w3.org/2000/svg"><desc /><defs><linearGradient id="fs1" x1="0.99999988079071px" y1="-1.76606356205866E-08px" x2="0.999999821186066px" y2="0.99999988079071px"><stop offset="0%" stop-color="#D3D3D3" stop-opacity="1" /><stop offset="100%" stop-color="#FFFFFF" stop-opacity="1" /></linearGradient><linearGradient id="fs2" x1="0.999999821186066px" y1="-8.94069671630859E-08px" x2="0.999999701976776px" y2="0.999999761581421px"><stop offset="0%" stop-color="#FFFFFF" stop-opacity="0.5490196" /><stop offset="100%" stop-color="#FFFFFF" stop-opacity="0.1568628" /></linearGradient><linearGradient id="fs3" x1="0.999999821186066px" y1="-9.01819685594774E-09px" x2="0.999999761581421px" y2="0.999999761581421px"><stop offset="0%" stop-color="#D3D3D3" stop-opacity="1" /><stop offset="100%" stop-color="#FFFFFF" stop-opacity="1" /></linearGradient><linearGradient id="fs4" x1="0.999999940395355px" y1="-1.54441188726651E-08px" x2="0.999999821186066px" y2="0.99999988079071px"><stop offset="0%" stop-color="#FFFFFF" stop-opacity="0.5490196" /><stop offset="100%" stop-color="#FFFFFF" stop-opacity="0.1568628" /></linearGradient><linearGradient id="fs5" x1="0.999998450279236px" y1="-2.17982710637443E-06px" x2="0.999998092651367px" y2="0.999997794628143px"><stop offset="0%" stop-color="#D3D3D3" stop-opacity="1" /><stop offset="100%" stop-color="#FFFFFF" stop-opacity="1" /></linearGradient><linearGradient id="fs6" x1="0.999997735023499px" y1="-5.95464916841593E-06px" x2="0.999997735023499px" y2="0.999994039535522px"><stop offset="0%" stop-color="#FFFFFF" stop-opacity="0.5490196" /><stop offset="100%" stop-color="#FFFFFF" stop-opacity="0.1568628" /></linearGradient><linearGradient id="fs7" x1="0.999999701976776px" y1="-2.28881830821592E-07px" x2="0.999999463558197px" y2="0.999999701976776px"><stop offset="0%" stop-color="#D3D3D3" stop-opacity="1" /><stop offset="100%" stop-color="#FFFFFF" stop-opacity="1" /></linearGradient><linearGradient id="fs8" x1="0.999999463558197px" y1="-6.57706436868466E-07px" x2="0.999999344348907px" y2="0.999998927116394px"><stop offset="0%" stop-color="#FFFFFF" stop-opacity="0.5490196" /><stop offset="100%" stop-color="#FFFFFF" stop-opacity="0.1568628" /></linearGradient><linearGradient id="fs9" x1="0.999998807907104px" y1="-8.47710509788158E-07px" x2="0.999997973442078px" y2="0.999999165534973px"><stop offset="0%" stop-color="#D3D3D3" stop-opacity="1" /><stop offset="100%" stop-color="#FFFFFF" stop-opacity="1" /></linearGradient><linearGradient id="fs10" x1="0.999998807907104px" y1="-1.1737530485334E-06px" x2="0.999998390674591px" y2="0.999998807907104px"><stop offset="0%" stop-color="#FFFFFF" stop-opacity="0.5490196" /><stop offset="100%" stop-color="#FFFFFF" stop-opacity="0.1568628" /></linearGradient><linearGradient id="fs11" x1="0.999998807907104px" y1="-6.53948120543646E-07px" x2="0.999998331069946px" y2="0.999999105930328px"><stop offset="0%" stop-color="#D3D3D3" stop-opacity="1" /><stop offset="100%" stop-color="#FFFFFF" stop-opacity="1" /></linearGradient><linearGradient id="fs12" x1="0.999998807907104px" y1="-1.48866229210398E-06px" x2="0.999998569488525px" y2="0.999998152256012px"><stop offset="0%" stop-color="#FFFFFF" stop-opacity="0.5490196" /><stop offset="100%" stop-color="#FFFFFF" stop-opacity="0.1568628" /></linearGradient><linearGradient id="fs13" x1="0.999995112419128px" y1="-3.39084217557684E-05px" x2="0.999995112419128px" y2="0.999966084957123px"><stop offset="0%" stop-color="#D3D3D3" stop-opacity="1" /><stop offset="100%" stop-color="#FFFFFF" stop-opacity="1" /></linearGradient><linearGradient id="fs14" x1="0.999993503093719px" y1="-4.57763671875E-05px" x2="0.999993503093719px" y2="0.999954223632813px"><stop offset="0%" stop-color="#FFFFFF" stop-opacity="0.5490196" /><stop offset="100%" stop-color="#FFFFFF" stop-opacity="0.1568628" /></linearGradient><linearGradient id="fs15" x1="0.99999874830246px" y1="-3.8413736547227E-06px" x2="0.999998569488525px" y2="0.999995708465576px"><stop offset="0%" stop-color="#D3D3D3" stop-opacity="1" /><stop offset="100%" stop-color="#FFFFFF" stop-opacity="1" /></linearGradient><linearGradient id="fs16" x1="0.999998331069946px" y1="-1.01725263448316E-05px" x2="0.999998331069946px" y2="0.999989807605743px"><stop offset="0%" stop-color="#FFFFFF" stop-opacity="0.5490196" /><stop offset="100%" stop-color="#FFFFFF" stop-opacity="0.1568628" /></linearGradient><linearGradient id="fs17" x1="0.999998688697815px" y1="-4.0690106288821E-06px" x2="0.999998271465302px" y2="0.999995231628418px"><stop offset="0%" stop-color="#D3D3D3" stop-opacity="1" /><stop offset="100%" stop-color="#FFFFFF" stop-opacity="1" /></linearGradient><linearGradient id="fs18" x1="0.99999737739563px" y1="-1.29112831928069E-05px" x2="0.99999737739563px" y2="0.999987065792084px"><stop offset="0%" stop-color="#FFFFFF" stop-opacity="0.5490196" /><stop offset="100%" stop-color="#FFFFFF" stop-opacity="0.1568628" /></linearGradient><linearGradient id="fs19" x1="0.999996364116669px" y1="-4.0690106288821E-06px" x2="0.999995529651642px" y2="0.999995946884155px"><stop offset="0%" stop-color="#D3D3D3" stop-opacity="1" /><stop offset="100%" stop-color="#FFFFFF" stop-opacity="1" /></linearGradient><linearGradient id="fs20" x1="0.999995112419128px" y1="-1.17375302579603E-05px" x2="0.999994277954102px" y2="0.999987065792084px"><stop offset="0%" stop-color="#FFFFFF" stop-opacity="0.5490196" /><stop offset="100%" stop-color="#FFFFFF" stop-opacity="0.1568628" /></linearGradient><linearGradient id="fs21" x1="0.999998569488525px" y1="-4.0690106288821E-06px" x2="0.999998092651367px" y2="0.999995231628418px"><stop offset="0%" stop-color="#D3D3D3" stop-opacity="1" /><stop offset="100%" stop-color="#FFFFFF" stop-opacity="1" /></linearGradient><linearGradient id="fs22" x1="0.999998092651367px" y1="-1.29112831928069E-05px" x2="0.999998092651367px" y2="0.999987065792084px"><stop offset="0%" stop-color="#FFFFFF" stop-opacity="0.5490196" /><stop offset="100%" stop-color="#FFFFFF" stop-opacity="0.1568628" /></linearGradient><linearGradient id="fs23" x1="0.99999475479126px" y1="-3.84295417461544E-05px" x2="0.99999475479126px" y2="0.99996155500412px"><stop offset="0%" stop-color="#D3D3D3" stop-opacity="1" /><stop offset="100%" stop-color="#FFFFFF" stop-opacity="1" /></linearGradient><linearGradient id="fs24" x1="0.99999475479126px" y1="-0.0001068115234375px" x2="0.99999475479126px" y2="0.999893188476563px"><stop offset="0%" stop-color="#FFFFFF" stop-opacity="0.5490196" /><stop offset="100%" stop-color="#FFFFFF" stop-opacity="0.1568628" /></linearGradient><linearGradient id="fs25" x1="0.999998867511749px" y1="-1.49386744396907E-06px" x2="0.999998867511749px" y2="0.999998271465302px"><stop offset="0%" stop-color="#D3D3D3" stop-opacity="1" /><stop offset="100%" stop-color="#FFFFFF" stop-opacity="1" /></linearGradient><linearGradient id="fs26" x1="0.999999225139618px" y1="-3.99634973291541E-06px" x2="0.999999225139618px" y2="0.999995648860931px"><stop offset="0%" stop-color="#FFFFFF" stop-opacity="0.5490196" /><stop offset="100%" stop-color="#FFFFFF" stop-opacity="0.1568628" /></linearGradient><linearGradient id="fs27" x1="0.999998688697815px" y1="-4.0690106288821E-06px" x2="0.999998688697815px" y2="0.999995231628418px"><stop offset="0%" stop-color="#D3D3D3" stop-opacity="1" /><stop offset="100%" stop-color="#FFFFFF" stop-opacity="1" /></linearGradient><linearGradient id="fs28" x1="0.99999737739563px" y1="-1.17375302579603E-05px" x2="0.99999737739563px" y2="0.999987065792084px"><stop offset="0%" stop-color="#FFFFFF" stop-opacity="0.5490196" /><stop offset="100%" stop-color="#FFFFFF" stop-opacity="0.1568628" /></linearGradient><clipPath id="cp1"><path d="M 197 277 L 359 277  359 349  197 349 z " /></clipPath><clipPath id="cp2"><path d="M 87 97 L 229 97  229 199  87 199 z " /></clipPath><clipPath id="cp3"><path d="M 447 97 L 599 97  599 189  447 189 z " /></clipPath><clipPath id="cp4"><path d="M 387 237 L 649 237  649 379  387 379 z " /></clipPath><clipPath id="cp5"><path d="M 187 517 L 329 517  329 609  187 609 z " /></clipPath><clipPath id="cp6"><path d="M 607 517 L 759 517  759 609  607 609 z " /></clipPath><clipPath id="cp7"><path d="M 337 517 L 599 517  599 609  337 609 z " /></clipPath><clipPath id="cp8"><path d="M 17 517 L 159 517  159 609  17 609 z " /></clipPath></defs><g transform="matrix(1 0 0 1 0 0)"><rect x="8px" y="8px" width="150px" height="27px" fill="url(#fs1)" /><path d="M 158 16.91927 C 83 16.91927  8 16.91927  8 23.60872 L 8 8  158 8  158 16.91927 z " fill="url(#fs2)" /><rect x="8px" y="8px" width="150px" height="26px" fill="none" stroke="#000000" stroke-width="1px" stroke-dashoffset="0" stroke-linejoin="round" stroke-miterlimit="10" /><text x="58px" y="29.0911445617676px" font-family="Microsoft Sans Serif" font-size="10pt" font-weight="bold" fill="#000000">service</text><rect x="8px" y="35px" width="760px" height="423px" fill="url(#fs3)" /><path d="M 768 175.8385 C 388 175.8385  8 175.8385  8 281.6491 L 8 34.75781  768 34.75781  768 175.8385 z " fill="url(#fs4)" /><rect x="8px" y="34px" width="760px" height="423px" fill="none" stroke="#000000" stroke-width="1px" stroke-dashoffset="0" stroke-linejoin="round" stroke-miterlimit="10" /></g><g transform="matrix(1 0 0 1 0 0)"><rect x="198px" y="278px" width="160px" height="70px" fill="url(#fs5)" /><path d="M 358 301.3333 C 278 301.3333  198 301.3333  198 318.8333 L 198 278  358 278  358 301.3333 z " fill="url(#fs6)" /><rect x="198px" y="278px" width="160px" height="70px" fill="none" stroke="#000000" stroke-width="1px" stroke-dashoffset="0" stroke-linejoin="round" stroke-miterlimit="10" /><g clip-path="url(#cp1)"><text x="229px" y="294.091156005859px" font-family="Microsoft Sans Serif" font-size="10pt" font-weight="bold" font-style="italic" fill="#000000">AbstractService</text><line x1="198px" y1="299px" x2="358px" y2="299px" stroke="#000000" stroke-width="1px" stroke-dashoffset="0" stroke-linejoin="round" stroke-miterlimit="10" /><line x1="198px" y1="307px" x2="358px" y2="307px" stroke="#000000" stroke-width="1px" stroke-dashoffset="0" stroke-linejoin="round" stroke-miterlimit="10" /><text x="200px" y="324.091156005859px" font-family="Microsoft Sans Serif" font-size="10pt" fill="#000000">+ serviceB ():void</text></g></g><g transform="matrix(1 0 0 1 0 0)"><rect x="88px" y="98px" width="140px" height="100px" fill="url(#fs7)" /><path d="M 228 131.3333 C 158 131.3333  88 131.3333  88 156.3333 L 88 98  228 98  228 131.3333 z " fill="url(#fs8)" /><rect x="88px" y="98px" width="140px" height="100px" fill="none" stroke="#000000" stroke-width="1px" stroke-dashoffset="0" stroke-linejoin="round" stroke-miterlimit="10" /><g clip-path="url(#cp2)"><text x="127px" y="111.58203125px" font-family="Microsoft Sans Serif" font-size="9pt" font-style="italic" fill="#1E1E1E">«interface»</text><text x="132px" y="129.09114074707px" font-family="Microsoft Sans Serif" font-size="10pt" font-weight="bold" fill="#000000">Service</text><line x1="88px" y1="134px" x2="228px" y2="134px" stroke="#000000" stroke-width="1px" stroke-dashoffset="0" stroke-linejoin="round" stroke-miterlimit="10" /><line x1="88px" y1="142px" x2="228px" y2="142px" stroke="#000000" stroke-width="1px" stroke-dashoffset="0" stroke-linejoin="round" stroke-miterlimit="10" /><text x="90px" y="159.09114074707px" font-family="Microsoft Sans Serif" font-size="10pt" fill="#000000">+ serviceA ():void</text><text x="90px" y="176.09114074707px" font-family="Microsoft Sans Serif" font-size="10pt" fill="#000000">+ serviceB ():void</text></g></g><g transform="matrix(1 0 0 1 0 0)"><rect x="448px" y="98px" width="150px" height="90px" fill="url(#fs9)" /><path d="M 598 128 C 523 128  448 128  448 150.5 L 448 98  598 98  598 128 z " fill="url(#fs10)" /><rect x="448px" y="98px" width="150px" height="90px" fill="none" stroke="#000000" stroke-width="1px" stroke-dashoffset="0" stroke-linejoin="round" stroke-miterlimit="10" /><g clip-path="url(#cp3)"><text x="492px" y="111.58203125px" font-family="Microsoft Sans Serif" font-size="9pt" font-style="italic" fill="#1E1E1E">«interface»</text><text x="494px" y="129.09114074707px" font-family="Microsoft Sans Serif" font-size="10pt" font-weight="bold" fill="#000000">Provider</text><line x1="448px" y1="134px" x2="598px" y2="134px" stroke="#000000" stroke-width="1px" stroke-dashoffset="0" stroke-linejoin="round" stroke-miterlimit="10" /><line x1="448px" y1="142px" x2="598px" y2="142px" stroke="#000000" stroke-width="1px" stroke-dashoffset="0" stroke-linejoin="round" stroke-miterlimit="10" /><text x="450px" y="159.09114074707px" font-family="Microsoft Sans Serif" font-size="10pt" fill="#000000">+ newService ():Service</text></g></g><g transform="matrix(1 0 0 1 0 0)"><rect x="388px" y="238px" width="260px" height="140px" fill="url(#fs11)" /><path d="M 648 284.6667 C 518 284.6667  388 284.6667  388 319.6667 L 388 238  648 238  648 284.6667 z " fill="url(#fs12)" /><rect x="388px" y="238px" width="260px" height="140px" fill="none" stroke="#000000" stroke-width="1px" stroke-dashoffset="0" stroke-linejoin="round" stroke-miterlimit="10" /><g clip-path="url(#cp4)"><text x="489px" y="254.09114074707px" font-family="Microsoft Sans Serif" font-size="10pt" font-weight="bold" fill="#000000">Services</text><line x1="388px" y1="259px" x2="648px" y2="259px" stroke="#000000" stroke-width="1px" stroke-dashoffset="0" stroke-linejoin="round" stroke-miterlimit="10" /><text x="390px" y="279.091156005859px" font-family="Microsoft Sans Serif" font-size="10pt" fill="#000000">- providers : Map</text><text x="390px" y="296.091156005859px" font-family="Microsoft Sans Serif" font-size="10pt" fill="#000000">+ DEFAULT_PROVIDER_NAME : String</text><line x1="388px" y1="300px" x2="648px" y2="300px" stroke="#000000" stroke-width="1px" stroke-dashoffset="0" stroke-linejoin="round" stroke-miterlimit="10" /><text x="390px" y="317.091156005859px" font-family="Microsoft Sans Serif" font-size="10pt" text-decoration="underline" fill="#000000">+ registerProvider (String, Provider):void</text><text x="390px" y="334.091156005859px" font-family="Microsoft Sans Serif" font-size="10pt" text-decoration="underline" fill="#000000">+ registerDefaultProvider (Provider):void</text><text x="390px" y="351.091156005859px" font-family="Microsoft Sans Serif" font-size="10pt" text-decoration="underline" fill="#000000">+ newInstance (String):Service</text></g></g><g transform="matrix(1 0 0 1 0 0)"><rect x="178px" y="468px" width="150px" height="27px" fill="url(#fs13)" /><path d="M 328 476.9193 C 253 476.9193  178 476.9193  178 483.6087 L 178 468  328 468  328 476.9193 z " fill="url(#fs14)" /><rect x="178px" y="468px" width="150px" height="26px" fill="none" stroke="#000000" stroke-width="1px" stroke-dashoffset="0" stroke-linejoin="round" stroke-miterlimit="10" /><text x="239px" y="489.091156005859px" font-family="Microsoft Sans Serif" font-size="10pt" font-weight="bold" fill="#000000">impl</text><rect x="178px" y="495px" width="590px" height="143px" fill="url(#fs15)" /><path d="M 768 542.5052 C 473 542.5052  178 542.5052  178 578.3157 L 178 494.7578  768 494.7578  768 542.5052 z " fill="url(#fs16)" /><rect x="178px" y="494px" width="590px" height="143px" fill="none" stroke="#000000" stroke-width="1px" stroke-dashoffset="0" stroke-linejoin="round" stroke-miterlimit="10" /></g><g transform="matrix(1 0 0 1 0 0)"><rect x="188px" y="518px" width="140px" height="90px" fill="url(#fs17)" /><path d="M 328 548 C 258 548  188 548  188 570.5 L 188 518  328 518  328 548 z " fill="url(#fs18)" /><rect x="188px" y="518px" width="140px" height="90px" fill="none" stroke="#000000" stroke-width="1px" stroke-dashoffset="0" stroke-linejoin="round" stroke-miterlimit="10" /><g clip-path="url(#cp5)"><text x="218px" y="534.091125488281px" font-family="Microsoft Sans Serif" font-size="10pt" font-weight="bold" fill="#000000">BasicService</text><line x1="188px" y1="539px" x2="328px" y2="539px" stroke="#000000" stroke-width="1px" stroke-dashoffset="0" stroke-linejoin="round" stroke-miterlimit="10" /><line x1="188px" y1="547px" x2="328px" y2="547px" stroke="#000000" stroke-width="1px" stroke-dashoffset="0" stroke-linejoin="round" stroke-miterlimit="10" /><text x="190px" y="564.091125488281px" font-family="Microsoft Sans Serif" font-size="10pt" fill="#000000">+ serviceA ():void</text><text x="190px" y="581.091125488281px" font-family="Microsoft Sans Serif" font-size="10pt" fill="#000000">+ serviceB ():void</text></g></g><g transform="matrix(1 0 0 1 0 0)"><rect x="608px" y="518px" width="150px" height="90px" fill="url(#fs19)" /><path d="M 758 548 C 683 548  608 548  608 570.5 L 608 518  758 518  758 548 z " fill="url(#fs20)" /><rect x="608px" y="518px" width="150px" height="90px" fill="none" stroke="#000000" stroke-width="1px" stroke-dashoffset="0" stroke-linejoin="round" stroke-miterlimit="10" /><g clip-path="url(#cp6)"><text x="640px" y="534.091125488281px" font-family="Microsoft Sans Serif" font-size="10pt" font-weight="bold" fill="#000000">BasicProvider</text><line x1="608px" y1="539px" x2="758px" y2="539px" stroke="#000000" stroke-width="1px" stroke-dashoffset="0" stroke-linejoin="round" stroke-miterlimit="10" /><line x1="608px" y1="547px" x2="758px" y2="547px" stroke="#000000" stroke-width="1px" stroke-dashoffset="0" stroke-linejoin="round" stroke-miterlimit="10" /><text x="610px" y="564.091125488281px" font-family="Microsoft Sans Serif" font-size="10pt" fill="#000000">+ newService ():Service</text></g></g><g transform="matrix(1 0 0 1 0 0)"><rect x="338px" y="518px" width="260px" height="90px" fill="url(#fs21)" /><path d="M 598 548 C 468 548  338 548  338 570.5 L 338 518  598 518  598 548 z " fill="url(#fs22)" /><rect x="338px" y="518px" width="260px" height="90px" fill="none" stroke="#000000" stroke-width="1px" stroke-dashoffset="0" stroke-linejoin="round" stroke-miterlimit="10" /><g clip-path="url(#cp7)"><text x="425px" y="534.091125488281px" font-family="Microsoft Sans Serif" font-size="10pt" font-weight="bold" fill="#000000">BasicImpUtil</text><line x1="338px" y1="539px" x2="598px" y2="539px" stroke="#000000" stroke-width="1px" stroke-dashoffset="0" stroke-linejoin="round" stroke-miterlimit="10" /><line x1="338px" y1="547px" x2="598px" y2="547px" stroke="#000000" stroke-width="1px" stroke-dashoffset="0" stroke-linejoin="round" stroke-miterlimit="10" /><text x="340px" y="564.091125488281px" font-family="Microsoft Sans Serif" font-size="10pt" text-decoration="underline" fill="#000000">+ registerImplementation ():void</text><text x="340px" y="581.091125488281px" font-family="Microsoft Sans Serif" font-size="10pt" text-decoration="underline" fill="#000000">+ registerImplementationAsDefault ():void</text></g></g><g transform="matrix(1 0 0 1 0 0)"><rect x="8px" y="468px" width="140px" height="27px" fill="url(#fs23)" /><path d="M 148 476.9193 C 78 476.9193  8 476.9193  8 483.6087 L 8 468  148 468  148 476.9193 z " fill="url(#fs24)" /><rect x="8px" y="468px" width="140px" height="26px" fill="none" stroke="#000000" stroke-width="1px" stroke-dashoffset="0" stroke-linejoin="round" stroke-miterlimit="10" /><text x="59px" y="489.091156005859px" font-family="Microsoft Sans Serif" font-size="10pt" font-weight="bold" fill="#000000">client</text><rect x="8px" y="495px" width="160px" height="143px" fill="url(#fs25)" /><path d="M 168 542.5052 C 88 542.5052  8 542.5052  8 578.3157 L 8 494.7578  168 494.7578  168 542.5052 z " fill="url(#fs26)" /><rect x="8px" y="494px" width="160px" height="143px" fill="none" stroke="#000000" stroke-width="1px" stroke-dashoffset="0" stroke-linejoin="round" stroke-miterlimit="10" /></g><g transform="matrix(1 0 0 1 0 0)"><rect x="18px" y="518px" width="140px" height="90px" fill="url(#fs27)" /><path d="M 158 548 C 88 548  18 548  18 570.5 L 18 518  158 518  158 548 z " fill="url(#fs28)" /><rect x="18px" y="518px" width="140px" height="90px" fill="none" stroke="#000000" stroke-width="1px" stroke-dashoffset="0" stroke-linejoin="round" stroke-miterlimit="10" /><g clip-path="url(#cp8)"><text x="72px" y="534.091125488281px" font-family="Microsoft Sans Serif" font-size="10pt" font-weight="bold" fill="#000000">Main</text><line x1="18px" y1="539px" x2="158px" y2="539px" stroke="#000000" stroke-width="1px" stroke-dashoffset="0" stroke-linejoin="round" stroke-miterlimit="10" /><line x1="18px" y1="547px" x2="158px" y2="547px" stroke="#000000" stroke-width="1px" stroke-dashoffset="0" stroke-linejoin="round" stroke-miterlimit="10" /><text x="20px" y="564.091125488281px" font-family="Microsoft Sans Serif" font-size="10pt" text-decoration="underline" fill="#000000">+ main (String[]):void</text></g></g><g transform="matrix(1 0 0 1 0 0)"><polyline points="448,148 228,148 " fill="none" stroke="#000000" stroke-width="1px" stroke-dasharray="5,4" stroke-dashoffset="0" stroke-linejoin="miter" stroke-miterlimit="10" /><line x1="228px" y1="148px" x2="246px" y2="156px" stroke="#000000" stroke-width="1px" stroke-dashoffset="0" stroke-linejoin="round" stroke-miterlimit="10" /><line x1="228px" y1="148px" x2="246px" y2="140px" stroke="#000000" stroke-width="1px" stroke-dashoffset="0" stroke-linejoin="round" stroke-miterlimit="10" /></g><g transform="matrix(1 0 0 1 0 0)"><polyline points="520,238 522,188 " fill="none" stroke="#000000" stroke-width="1px" stroke-dasharray="5,4" stroke-dashoffset="0" stroke-linejoin="miter" stroke-miterlimit="10" /><line x1="522px" y1="188px" x2="513px" y2="206px" stroke="#000000" stroke-width="1px" stroke-dashoffset="0" stroke-linejoin="round" stroke-miterlimit="10" /><line x1="522px" y1="188px" x2="530px" y2="206px" stroke="#000000" stroke-width="1px" stroke-dashoffset="0" stroke-linejoin="round" stroke-miterlimit="10" /><text x="529px" y="220.58203125px" font-family="Microsoft Sans Serif" font-size="9pt" font-style="italic" fill="#1E1E1E">«use»</text></g><g transform="matrix(1 0 0 1 0 0)"><polyline points="308,518 308,348 " fill="none" stroke="#000000" stroke-width="1px" stroke-dashoffset="0" stroke-linejoin="round" stroke-miterlimit="10" /><polygon points="308,348 302,367 314,367 " fill="#FFFFFF" /><polygon fill="none" points="308,348 302,367 314,367 " stroke="#000000" stroke-width="1px" stroke-dashoffset="0" stroke-linejoin="round" stroke-miterlimit="10" /></g><g transform="matrix(1 0 0 1 0 0)"><polyline points="688,518 688,138 598,138 " fill="none" stroke="#000000" stroke-width="1px" stroke-dasharray="5,4" stroke-dashoffset="0" stroke-linejoin="miter" stroke-miterlimit="10" /><polygon points="598,138 617,144 617,132 " fill="#FFFFFF" /><polygon fill="none" points="598,138 617,144 617,132 " stroke="#000000" stroke-width="1px" stroke-dashoffset="0" stroke-linejoin="round" stroke-miterlimit="10" /></g><g transform="matrix(1 0 0 1 0 0)"><polyline points="477,518 478,378 " fill="none" stroke="#000000" stroke-width="1px" stroke-dasharray="5,4" stroke-dashoffset="0" stroke-linejoin="miter" stroke-miterlimit="10" /><line x1="478px" y1="378px" x2="469px" y2="396px" stroke="#000000" stroke-width="1px" stroke-dashoffset="0" stroke-linejoin="round" stroke-miterlimit="10" /><line x1="478px" y1="378px" x2="486px" y2="396px" stroke="#000000" stroke-width="1px" stroke-dashoffset="0" stroke-linejoin="round" stroke-miterlimit="10" /></g><g transform="matrix(1 0 0 1 0 0)"><polyline points="128,518 128,198 " fill="none" stroke="#000000" stroke-width="1px" stroke-dasharray="5,4" stroke-dashoffset="0" stroke-linejoin="miter" stroke-miterlimit="10" /><line x1="128px" y1="198px" x2="120px" y2="216px" stroke="#000000" stroke-width="1px" stroke-dashoffset="0" stroke-linejoin="round" stroke-miterlimit="10" /><line x1="128px" y1="198px" x2="136px" y2="216px" stroke="#000000" stroke-width="1px" stroke-dashoffset="0" stroke-linejoin="round" stroke-miterlimit="10" /><text x="126px" y="355.58203125px" font-family="Microsoft Sans Serif" font-size="9pt" font-style="italic" fill="#1E1E1E">«use»</text></g><g transform="matrix(1 0 0 1 0 0)"><polyline points="278,278 278,228 158,228 158,198 " fill="none" stroke="#000000" stroke-width="1px" stroke-dasharray="5,4" stroke-dashoffset="0" stroke-linejoin="miter" stroke-miterlimit="10" /><polygon points="158,198 152,217 164,217 " fill="#FFFFFF" /><polygon fill="none" points="158,198 152,217 164,217 " stroke="#000000" stroke-width="1px" stroke-dashoffset="0" stroke-linejoin="round" stroke-miterlimit="10" /></g></svg>