<?xml version="1.0" encoding="utf-8" standalone="no"?><!DOCTYPE svg PUBLIC "-//W3C//DTD SVG 1.1//EN" "http://www.w3.org/Graphics/SVG/1.1/DTD/svg11.dtd"><svg width="538px" height="640px" version="1.1" xmlns="http://www.w3.org/2000/svg"><desc /><defs><linearGradient id="fs1" x1="0.99999988079071px" y1="-1.58945727690707E-08px" x2="0.999999761581421px" y2="0.999999761581421px"><stop offset="0%" stop-color="#D3D3D3" stop-opacity="1" /><stop offset="100%" stop-color="#FFFFFF" stop-opacity="1" /></linearGradient><linearGradient id="fs2" x1="0.999999761581421px" y1="-2.72478377638663E-08px" x2="0.999999701976776px" y2="0.999999701976776px"><stop offset="0%" stop-color="#FFFFFF" stop-opacity="0.5490196" /><stop offset="100%" stop-color="#FFFFFF" stop-opacity="0.1568628" /></linearGradient><linearGradient id="fs3" x1="0.999999344348907px" y1="-2.54313164305131E-07px" x2="0.999999105930328px" y2="0.999999463558197px"><stop offset="0%" stop-color="#D3D3D3" stop-opacity="1" /><stop offset="100%" stop-color="#FFFFFF" stop-opacity="1" /></linearGradient><linearGradient id="fs4" x1="0.999999105930328px" y1="-2.1798270211093E-07px" x2="0.999998688697815px" y2="0.999999582767487px"><stop offset="0%" stop-color="#FFFFFF" stop-opacity="0.5490196" /><stop offset="100%" stop-color="#FFFFFF" stop-opacity="0.1568628" /></linearGradient><linearGradient id="fs5" x1="0.999998390674591px" y1="-7.62939464493684E-07px" x2="0.999997794628143px" y2="0.999998450279236px"><stop offset="0%" stop-color="#D3D3D3" stop-opacity="1" /><stop offset="100%" stop-color="#FFFFFF" stop-opacity="1" /></linearGradient><linearGradient id="fs6" x1="0.999996721744537px" y1="-8.71930808443722E-07px" x2="0.999996185302734px" y2="0.999998688697815px"><stop offset="0%" stop-color="#FFFFFF" stop-opacity="0.5490196" /><stop offset="100%" stop-color="#FFFFFF" stop-opacity="0.1568628" /></linearGradient><linearGradient id="fs7" x1="0.999997735023499px" y1="-1.57075771767268E-06px" x2="0.999996960163116px" y2="0.999997973442078px"><stop offset="0%" stop-color="#D3D3D3" stop-opacity="1" /><stop offset="100%" stop-color="#FFFFFF" stop-opacity="1" /></linearGradient><linearGradient id="fs8" x1="0.999996960163116px" y1="-3.814697265625E-06px" x2="0.999996185302734px" y2="0.999996185302734px"><stop offset="0%" stop-color="#FFFFFF" stop-opacity="0.5490196" /><stop offset="100%" stop-color="#FFFFFF" stop-opacity="0.1568628" /></linearGradient><linearGradient id="fs9" x1="0.999975562095642px" y1="-4.02706200475222E-06px" x2="0.999974071979523px" y2="0.999995946884155px"><stop offset="0%" stop-color="#D3D3D3" stop-opacity="1" /><stop offset="100%" stop-color="#FFFFFF" stop-opacity="1" /></linearGradient><linearGradient id="fs10" x1="0.99996030330658px" y1="-2.5880631255859E-06px" x2="0.99995881319046px" y2="0.999995708465576px"><stop offset="0%" stop-color="#FFFFFF" stop-opacity="0.5490196" /><stop offset="100%" stop-color="#FFFFFF" stop-opacity="0.1568628" /></linearGradient><linearGradient id="fs11" x1="0.99997866153717px" y1="-4.43892031398718E-06px" x2="0.999977111816406px" y2="0.999995589256287px"><stop offset="0%" stop-color="#D3D3D3" stop-opacity="1" /><stop offset="100%" stop-color="#FFFFFF" stop-opacity="1" /></linearGradient><linearGradient id="fs12" x1="0.999981701374054px" y1="-3.814697265625E-06px" x2="0.99997866153717px" y2="0.999996185302734px"><stop offset="0%" stop-color="#FFFFFF" stop-opacity="0.5490196" /><stop offset="100%" stop-color="#FFFFFF" stop-opacity="0.1568628" /></linearGradient><linearGradient id="fs13" x1="0.999999701976776px" y1="-6.57706422657611E-08px" x2="0.999999642372131px" y2="0.999999582767487px"><stop offset="0%" stop-color="#D3D3D3" stop-opacity="1" /><stop offset="100%" stop-color="#FFFFFF" stop-opacity="1" /></linearGradient><linearGradient id="fs14" x1="0.99999612569809px" y1="-7.62939453125E-06px" x2="0.99999612569809px" y2="0.999991774559021px"><stop offset="0%" stop-color="#FFFFFF" stop-opacity="0.5490196" /><stop offset="100%" stop-color="#FFFFFF" stop-opacity="0.1568628" /></linearGradient><linearGradient id="fs15" x1="0.999995410442352px" y1="-4.0690106288821E-06px" x2="0.999993920326233px" y2="0.999995946884155px"><stop offset="0%" stop-color="#D3D3D3" stop-opacity="1" /><stop offset="100%" stop-color="#FFFFFF" stop-opacity="1" /></linearGradient><linearGradient id="fs16" x1="0.999975562095642px" y1="-6.10351571594947E-06px" x2="0.999972522258759px" y2="0.999993026256561px"><stop offset="0%" stop-color="#FFFFFF" stop-opacity="0.5490196" /><stop offset="100%" stop-color="#FFFFFF" stop-opacity="0.1568628" /></linearGradient><linearGradient id="fs17" x1="0.999999165534973px" y1="-4.01547083583864E-07px" x2="0.999998986721039px" y2="0.999999463558197px"><stop offset="0%" stop-color="#D3D3D3" stop-opacity="1" /><stop offset="100%" stop-color="#FFFFFF" stop-opacity="1" /></linearGradient><linearGradient id="fs18" x1="0.999994814395905px" y1="-2.34750605159206E-05px" x2="0.999994814395905px" y2="0.999976515769959px"><stop offset="0%" stop-color="#FFFFFF" stop-opacity="0.5490196" /><stop offset="100%" stop-color="#FFFFFF" stop-opacity="0.1568628" /></linearGradient><linearGradient id="fs19" x1="0.999943554401398px" y1="-2.61579243669985E-05px" x2="0.999940514564514px" y2="0.999973833560944px"><stop offset="0%" stop-color="#D3D3D3" stop-opacity="1" /><stop offset="100%" stop-color="#FFFFFF" stop-opacity="1" /></linearGradient><linearGradient id="fs20" x1="0.999948143959045px" y1="-6.35782853350975E-05px" x2="0.999946594238281px" y2="0.999936401844025px"><stop offset="0%" stop-color="#FFFFFF" stop-opacity="0.5490196" /><stop offset="100%" stop-color="#FFFFFF" stop-opacity="0.1568628" /></linearGradient><linearGradient id="fs21" x1="0.999999463558197px" y1="-6.57706436868466E-07px" x2="0.999999463558197px" y2="0.999998927116394px"><stop offset="0%" stop-color="#D3D3D3" stop-opacity="1" /><stop offset="100%" stop-color="#FFFFFF" stop-opacity="1" /></linearGradient><linearGradient id="fs22" x1="0.999992191791534px" y1="-2.81700722553069E-05px" x2="0.999992191791534px" y2="0.999969482421875px"><stop offset="0%" stop-color="#FFFFFF" stop-opacity="0.5490196" /><stop offset="100%" stop-color="#FFFFFF" stop-opacity="0.1568628" /></linearGradient><linearGradient id="fs23" x1="0.999977111816406px" y1="-5.44262547919061E-06px" x2="0.999975562095642px" y2="0.999994575977325px"><stop offset="0%" stop-color="#D3D3D3" stop-opacity="1" /><stop offset="100%" stop-color="#FFFFFF" stop-opacity="1" /></linearGradient><linearGradient id="fs24" x1="0.999981701374054px" y1="-5.30740499016247E-06px" x2="0.99997866153717px" y2="0.999994695186615px"><stop offset="0%" stop-color="#FFFFFF" stop-opacity="0.5490196" /><stop offset="100%" stop-color="#FFFFFF" stop-opacity="0.1568628" /></linearGradient><linearGradient id="fs25" x1="0.999967932701111px" y1="-7.32421858629095E-06px" x2="0.999966442584991px" y2="0.999992668628693px"><stop offset="0%" stop-color="#D3D3D3" stop-opacity="1" /><stop offset="100%" stop-color="#FFFFFF" stop-opacity="1" /></linearGradient><linearGradient id="fs26" x1="0.999993920326233px" y1="-1.36802937049652E-05px" x2="0.999992370605469px" y2="0.999986290931702px"><stop offset="0%" stop-color="#FFFFFF" stop-opacity="0.5490196" /><stop offset="100%" stop-color="#FFFFFF" stop-opacity="0.1568628" /></linearGradient><linearGradient id="fs27" x1="0.999999403953552px" y1="-2.38418579101563E-06px" x2="0.999999403953552px" y2="0.999997138977051px"><stop offset="0%" stop-color="#D3D3D3" stop-opacity="1" /><stop offset="100%" stop-color="#FFFFFF" stop-opacity="1" /></linearGradient><linearGradient id="fs28" x1="0.999992191791534px" y1="-0.000110332781332545px" x2="0.999992191791534px" y2="0.999889671802521px"><stop offset="0%" stop-color="#FFFFFF" stop-opacity="0.5490196" /><stop offset="100%" stop-color="#FFFFFF" stop-opacity="0.1568628" /></linearGradient><linearGradient id="fs29" x1="0.99993896484375px" y1="-7.01904282323085E-05px" x2="0.999935925006866px" y2="0.999929785728455px"><stop offset="0%" stop-color="#D3D3D3" stop-opacity="1" /><stop offset="100%" stop-color="#FFFFFF" stop-opacity="1" /></linearGradient><linearGradient id="fs30" x1="0.999945044517517px" y1="-0.000188191726920195px" x2="0.999945044517517px" y2="0.999811828136444px"><stop offset="0%" stop-color="#FFFFFF" stop-opacity="0.5490196" /><stop offset="100%" stop-color="#FFFFFF" stop-opacity="0.1568628" /></linearGradient><clipPath id="cp1"><path d="M 167 130.7578 L 203.5799 130.7578  213.5799 119.8789  213.5799 109  167 109 " /></clipPath><clipPath id="cp2"><path d="M 193 191.7578 L 229.5799 191.7578  239.5799 180.8789  239.5799 170  193 170 " /></clipPath><clipPath id="cp3"><path d="M 169 379.7578 L 205.5799 379.7578  215.5799 368.8789  215.5799 358  169 358 " /></clipPath><clipPath id="cp4"><path d="M 195 444.7578 L 231.5799 444.7578  241.5799 433.8789  241.5799 423  195 423 " /></clipPath></defs><g transform="matrix(1 0 0 1 0 0)"><rect x="8px" y="8px" width="140px" height="60px" fill="url(#fs1)" /><path d="M 148 28 C 78 28  8 28  8 43 L 8 8  148 8  148 28 z " fill="url(#fs2)" /><rect x="8px" y="8px" width="140px" height="60px" fill="none" stroke="#000000" stroke-width="1px" stroke-dashoffset="0" stroke-linejoin="round" stroke-miterlimit="10" /><text x="21px" y="46.0911445617676px" font-family="Microsoft Sans Serif" font-size="10pt" font-weight="bold" fill="#000000">RepositoryListerer</text><line x1="78px" y1="68px" x2="78px" y2="624px" stroke="#000000" stroke-width="1px" stroke-dasharray="10,10" stroke-dashoffset="0" stroke-linejoin="miter" stroke-miterlimit="10" /></g><g transform="matrix(1 0 0 1 0 0)"><rect x="212px" y="8px" width="139px" height="60px" fill="url(#fs3)" /><path d="M 351 28 C 281.5 28  212 28  212 43 L 212 8  351 8  351 28 z " fill="url(#fs4)" /><rect x="212px" y="8px" width="139px" height="60px" fill="none" stroke="#000000" stroke-width="1px" stroke-dashoffset="0" stroke-linejoin="round" stroke-miterlimit="10" /><text x="223px" y="46.0911445617676px" font-family="Microsoft Sans Serif" font-size="10pt" font-weight="bold" fill="#000000">Bytecode Analyser</text><line x1="281px" y1="68px" x2="281px" y2="616px" stroke="#000000" stroke-width="1px" stroke-dasharray="10,10" stroke-dashoffset="0" stroke-linejoin="miter" stroke-miterlimit="10" /></g><g transform="matrix(1 0 0 1 0 0)"><rect x="410px" y="8px" width="112px" height="60px" fill="url(#fs5)" /><path d="M 522 28 C 466 28  410 28  410 43 L 410 8  522 8  522 28 z " fill="url(#fs6)" /><rect x="410px" y="8px" width="112px" height="60px" fill="none" stroke="#000000" stroke-width="1px" stroke-dashoffset="0" stroke-linejoin="round" stroke-miterlimit="10" /><text x="415px" y="46.0911445617676px" font-family="Microsoft Sans Serif" font-size="10pt" font-weight="bold" fill="#000000">Storage Engine</text><line x1="466px" y1="68px" x2="466px" y2="617px" stroke="#000000" stroke-width="1px" stroke-dasharray="10,10" stroke-dashoffset="0" stroke-linejoin="miter" stroke-miterlimit="10" /></g><g transform="matrix(1 0 0 1 0 0)"><line x1="88px" y1="93px" x2="271px" y2="93px" stroke="#000000" stroke-width="1px" stroke-dashoffset="0" stroke-linejoin="miter" stroke-miterlimit="10" /><polygon points="271,93 253,85 253,101 " fill="#000000" /><text x="133px" y="91.0911407470703px" font-family="Microsoft Sans Serif" font-size="10pt" fill="#000000">newJars()</text></g><g transform="matrix(1 0 0 1 0 0)"><rect x="68px" y="88px" width="20px" height="34px" fill="url(#fs7)" /><path d="M 88 99.33333 C 78 99.33333  68 99.33333  68 107.8333 L 68 88  88 88  88 99.33333 z " fill="url(#fs8)" /><rect x="68px" y="88px" width="20px" height="34px" fill="none" stroke="#000000" stroke-width="1px" stroke-dashoffset="0" stroke-linejoin="round" stroke-miterlimit="10" /></g><g transform="matrix(1 0 0 1 0 0)"><rect x="271px" y="93px" width="20px" height="485px" fill="url(#fs9)" /><path d="M 291.5 254.6667 C 281.5 254.6667  271.5 254.6667  271.5 375.9167 L 271.5 93  291.5 93  291.5 254.6667 z " fill="url(#fs10)" /><rect x="271px" y="93px" width="20px" height="485px" fill="none" stroke="#000000" stroke-width="1px" stroke-dashoffset="0" stroke-linejoin="round" stroke-miterlimit="10" /></g><g transform="matrix(1 0 0 1 0 0)"><rect x="281px" y="144px" width="20px" height="165px" fill="url(#fs11)" /><path d="M 301.5 199 C 291.5 199  281.5 199  281.5 240.25 L 281.5 144  301.5 144  301.5 199 z " fill="url(#fs12)" /><rect x="281px" y="144px" width="20px" height="165px" fill="none" stroke="#000000" stroke-width="1px" stroke-dashoffset="0" stroke-linejoin="round" stroke-miterlimit="10" /></g><g transform="matrix(1 0 0 1 0 0)"><line x1="291px" y1="132px" x2="328px" y2="132px" stroke="#000000" stroke-width="1px" stroke-dashoffset="0" stroke-linejoin="miter" stroke-miterlimit="10" /><line x1="328px" y1="132px" x2="328px" y2="155px" stroke="#000000" stroke-width="1px" stroke-dashoffset="0" stroke-linejoin="miter" stroke-miterlimit="10" /><line x1="328px" y1="155px" x2="301px" y2="155px" stroke="#000000" stroke-width="1px" stroke-dashoffset="0" stroke-linejoin="miter" stroke-miterlimit="10" /><polygon points="301,155 318,163 318,147 " fill="#000000" /><text x="294px" y="126.09114074707px" font-family="Microsoft Sans Serif" font-size="10pt" fill="#000000">analizeJarStructure()</text></g><g transform="matrix(1 0 0 1 0 0)"><path d="M 167 130.7578 L 203.5799 130.7578  213.5799 119.8789  213.5799 109  167 109 " fill="url(#fs13)" /><g clip-path="url(#cp1)"><path d="M 213.5799 116.2526 C 190.2899 116.2526  167 116.2526  167 121.6921 L 167 109  213.5799 109  213.5799 116.2526 z " fill="url(#fs14)" /></g><path fill="none" d="M 167 130.7578 L 203.5799 130.7578  213.5799 119.8789  213.5799 109  167 109 " stroke="#000000" stroke-width="1px" stroke-dashoffset="0" stroke-linejoin="round" stroke-miterlimit="10" /><text x="169px" y="127.09114074707px" font-family="Microsoft Sans Serif" font-size="10pt" font-weight="bold" fill="#000000">loop</text><rect x="167px" y="109px" width="337px" height="232px" fill="none" stroke="#000000" stroke-width="1px" stroke-dashoffset="0" stroke-linejoin="round" stroke-miterlimit="10" /></g><g transform="matrix(1 0 0 1 0 0)"><rect x="291px" y="204px" width="20px" height="60px" fill="url(#fs15)" /><path d="M 311.5 224 C 301.5 224  291.5 224  291.5 239 L 291.5 204  311.5 204  311.5 224 z " fill="url(#fs16)" /><rect x="291px" y="204px" width="20px" height="60px" fill="none" stroke="#000000" stroke-width="1px" stroke-dashoffset="0" stroke-linejoin="round" stroke-miterlimit="10" /></g><g transform="matrix(1 0 0 1 0 0)"><line x1="301px" y1="189px" x2="346px" y2="189px" stroke="#000000" stroke-width="1px" stroke-dashoffset="0" stroke-linejoin="miter" stroke-miterlimit="10" /><line x1="346px" y1="189px" x2="346px" y2="212px" stroke="#000000" stroke-width="1px" stroke-dashoffset="0" stroke-linejoin="miter" stroke-miterlimit="10" /><line x1="346px" y1="212px" x2="311px" y2="212px" stroke="#000000" stroke-width="1px" stroke-dashoffset="0" stroke-linejoin="miter" stroke-miterlimit="10" /><polygon points="311,212 328,220 328,204 " fill="#000000" /><text x="306px" y="187.09114074707px" font-family="Microsoft Sans Serif" font-size="10pt" fill="#000000">analizeClassInJar()</text></g><g transform="matrix(1 0 0 1 0 0)"><path d="M 193 191.7578 L 229.5799 191.7578  239.5799 180.8789  239.5799 170  193 170 " fill="url(#fs17)" /><g clip-path="url(#cp2)"><path d="M 239.5799 177.2526 C 216.2899 177.2526  193 177.2526  193 182.6921 L 193 170  239.5799 170  239.5799 177.2526 z " fill="url(#fs18)" /></g><path fill="none" d="M 193 191.7578 L 229.5799 191.7578  239.5799 180.8789  239.5799 170  193 170 " stroke="#000000" stroke-width="1px" stroke-dashoffset="0" stroke-linejoin="round" stroke-miterlimit="10" /><text x="195px" y="188.09114074707px" font-family="Microsoft Sans Serif" font-size="10pt" font-weight="bold" fill="#000000">loop</text><rect x="193px" y="170px" width="248px" height="114px" fill="none" stroke="#000000" stroke-width="1px" stroke-dashoffset="0" stroke-linejoin="round" stroke-miterlimit="10" /></g><g transform="matrix(1 0 0 1 0 0)"><line x1="301px" y1="305px" x2="456px" y2="305px" stroke="#000000" stroke-width="1px" stroke-dashoffset="0" stroke-linejoin="miter" stroke-miterlimit="10" /><polygon points="456,305 438,297 438,313 " fill="#000000" /><text x="319px" y="303.091156005859px" font-family="Microsoft Sans Serif" font-size="10pt" fill="#000000">storeJarStructure()</text></g><g transform="matrix(1 0 0 1 0 0)"><rect x="456px" y="305px" width="20px" height="21px" fill="url(#fs19)" /><path d="M 476 312 C 466 312  456 312  456 317.25 L 456 305  476 305  476 312 z " fill="url(#fs20)" /><rect x="456px" y="305px" width="20px" height="21px" fill="none" stroke="#000000" stroke-width="1px" stroke-dashoffset="0" stroke-linejoin="round" stroke-miterlimit="10" /></g><g transform="matrix(1 0 0 1 0 0)"><path d="M 169 379.7578 L 205.5799 379.7578  215.5799 368.8789  215.5799 358  169 358 " fill="url(#fs21)" /><g clip-path="url(#cp3)"><path d="M 215.5799 365.2526 C 192.2899 365.2526  169 365.2526  169 370.692 L 169 358  215.5799 358  215.5799 365.2526 z " fill="url(#fs22)" /></g><path fill="none" d="M 169 379.7578 L 205.5799 379.7578  215.5799 368.8789  215.5799 358  169 358 " stroke="#000000" stroke-width="1px" stroke-dashoffset="0" stroke-linejoin="round" stroke-miterlimit="10" /><text x="171px" y="376.091156005859px" font-family="Microsoft Sans Serif" font-size="10pt" font-weight="bold" fill="#000000">loop</text><rect x="169px" y="358px" width="337px" height="232px" fill="none" stroke="#000000" stroke-width="1px" stroke-dashoffset="0" stroke-linejoin="round" stroke-miterlimit="10" /></g><g transform="matrix(1 0 0 1 0 0)"><line x1="291px" y1="385px" x2="328px" y2="385px" stroke="#000000" stroke-width="1px" stroke-dashoffset="0" stroke-linejoin="miter" stroke-miterlimit="10" /><line x1="328px" y1="385px" x2="328px" y2="408px" stroke="#000000" stroke-width="1px" stroke-dashoffset="0" stroke-linejoin="miter" stroke-miterlimit="10" /><line x1="328px" y1="408px" x2="301px" y2="408px" stroke="#000000" stroke-width="1px" stroke-dashoffset="0" stroke-linejoin="miter" stroke-miterlimit="10" /><polygon points="301,408 318,416 318,400 " fill="#000000" /><text x="297px" y="378.091156005859px" font-family="Microsoft Sans Serif" font-size="10pt" fill="#000000">analizeJarDependencies()</text></g><g transform="matrix(1 0 0 1 0 0)"><rect x="281px" y="400px" width="20px" height="157px" fill="url(#fs23)" /><path d="M 301.5 452.3333 C 291.5 452.3333  281.5 452.3333  281.5 491.5833 L 281.5 400  301.5 400  301.5 452.3333 z " fill="url(#fs24)" /><rect x="281px" y="400px" width="20px" height="157px" fill="none" stroke="#000000" stroke-width="1px" stroke-dashoffset="0" stroke-linejoin="round" stroke-miterlimit="10" /></g><g transform="matrix(1 0 0 1 0 0)"><rect x="291px" y="445px" width="20px" height="50px" fill="url(#fs25)" /><path d="M 311.5 461.6667 C 301.5 461.6667  291.5 461.6667  291.5 474.1667 L 291.5 445  311.5 445  311.5 461.6667 z " fill="url(#fs26)" /><rect x="291px" y="445px" width="20px" height="50px" fill="none" stroke="#000000" stroke-width="1px" stroke-dashoffset="0" stroke-linejoin="round" stroke-miterlimit="10" /></g><g transform="matrix(1 0 0 1 0 0)"><path d="M 195 444.7578 L 231.5799 444.7578  241.5799 433.8789  241.5799 423  195 423 " fill="url(#fs27)" /><g clip-path="url(#cp4)"><path d="M 241.5799 430.2526 C 218.2899 430.2526  195 430.2526  195 435.692 L 195 423  241.5799 423  241.5799 430.2526 z " fill="url(#fs28)" /></g><path fill="none" d="M 195 444.7578 L 231.5799 444.7578  241.5799 433.8789  241.5799 423  195 423 " stroke="#000000" stroke-width="1px" stroke-dashoffset="0" stroke-linejoin="round" stroke-miterlimit="10" /><text x="197px" y="441.091156005859px" font-family="Microsoft Sans Serif" font-size="10pt" font-weight="bold" fill="#000000">loop</text><rect x="195px" y="423px" width="301px" height="128px" fill="none" stroke="#000000" stroke-width="1px" stroke-dashoffset="0" stroke-linejoin="round" stroke-miterlimit="10" /></g><g transform="matrix(1 0 0 1 0 0)"><line x1="301px" y1="443px" x2="346px" y2="443px" stroke="#000000" stroke-width="1px" stroke-dashoffset="0" stroke-linejoin="miter" stroke-miterlimit="10" /><line x1="346px" y1="443px" x2="346px" y2="466px" stroke="#000000" stroke-width="1px" stroke-dashoffset="0" stroke-linejoin="miter" stroke-miterlimit="10" /><line x1="346px" y1="466px" x2="311px" y2="466px" stroke="#000000" stroke-width="1px" stroke-dashoffset="0" stroke-linejoin="miter" stroke-miterlimit="10" /><polygon points="311,466 328,474 328,458 " fill="#000000" /><text x="307px" y="440.091156005859px" font-family="Microsoft Sans Serif" font-size="10pt" fill="#000000">findClassDeps()</text></g><g transform="matrix(1 0 0 1 0 0)"><line x1="301px" y1="519px" x2="456px" y2="519px" stroke="#000000" stroke-width="1px" stroke-dashoffset="0" stroke-linejoin="miter" stroke-miterlimit="10" /><polygon points="456,519 438,511 438,527 " fill="#000000" /><text x="337px" y="517.091125488281px" font-family="Microsoft Sans Serif" font-size="10pt" fill="#000000">storeDeps()</text></g><g transform="matrix(1 0 0 1 0 0)"><rect x="456px" y="519px" width="20px" height="20px" fill="url(#fs29)" /><path d="M 476 525.6667 C 466 525.6667  456 525.6667  456 530.6667 L 456 519  476 519  476 525.6667 z " fill="url(#fs30)" /><rect x="456px" y="519px" width="20px" height="20px" fill="none" stroke="#000000" stroke-width="1px" stroke-dashoffset="0" stroke-linejoin="round" stroke-miterlimit="10" /></g><g transform="matrix(1 0 0 1 0 0)"><line x1="311px" y1="244px" x2="346px" y2="244px" stroke="#000000" stroke-width="1px" stroke-dasharray="5,4" stroke-dashoffset="0" stroke-linejoin="miter" stroke-miterlimit="10" /><line x1="346px" y1="244px" x2="346px" y2="274px" stroke="#000000" stroke-width="1px" stroke-dasharray="5,4" stroke-dashoffset="0" stroke-linejoin="miter" stroke-miterlimit="10" /><line x1="346px" y1="274px" x2="301px" y2="274px" stroke="#000000" stroke-width="1px" stroke-dasharray="5,4" stroke-dashoffset="0" stroke-linejoin="miter" stroke-miterlimit="10" /><line x1="301px" y1="274px" x2="318px" y2="282px" stroke="#000000" stroke-width="1px" stroke-dashoffset="0" stroke-linejoin="round" stroke-miterlimit="10" /><line x1="301px" y1="274px" x2="318px" y2="266px" stroke="#000000" stroke-width="1px" stroke-dashoffset="0" stroke-linejoin="round" stroke-miterlimit="10" /><text x="313px" y="243.09114074707px" font-family="Microsoft Sans Serif" font-size="10pt" fill="#000000">classStructure</text></g></svg>