<?xml version="1.0" encoding="utf-8" standalone="no"?><!DOCTYPE svg PUBLIC "-//W3C//DTD SVG 1.1//EN" "http://www.w3.org/Graphics/SVG/1.1/DTD/svg11.dtd"><svg width="647px" height="507px" version="1.1" xmlns="http://www.w3.org/2000/svg"><desc /><defs><linearGradient id="fs1" x1="0.999998688697815px" y1="-3.26974060271823E-07px" x2="0.999998390674591px" y2="0.999999582767487px"><stop offset="0%" stop-color="#D3D3D3" stop-opacity="1" /><stop offset="100%" stop-color="#FFFFFF" stop-opacity="1" /></linearGradient><linearGradient id="fs2" x1="0.999998688697815px" y1="-5.58248359538993E-07px" x2="0.999998092651367px" y2="0.999999284744263px"><stop offset="0%" stop-color="#FFFFFF" stop-opacity="0.5490196" /><stop offset="100%" stop-color="#FFFFFF" stop-opacity="0.1568628" /></linearGradient><linearGradient id="fs3" x1="0.999999344348907px" y1="-3.81469732246842E-07px" x2="0.999999225139618px" y2="0.999999463558197px"><stop offset="0%" stop-color="#D3D3D3" stop-opacity="1" /><stop offset="100%" stop-color="#FFFFFF" stop-opacity="1" /></linearGradient><linearGradient id="fs4" x1="0.999999463558197px" y1="-8.71930808443722E-07px" x2="0.999999225139618px" y2="0.999999105930328px"><stop offset="0%" stop-color="#FFFFFF" stop-opacity="0.5490196" /><stop offset="100%" stop-color="#FFFFFF" stop-opacity="0.1568628" /></linearGradient><linearGradient id="fs5" x1="0.999999582767487px" y1="-6.53948120543646E-07px" x2="0.999999582767487px" y2="0.999999105930328px"><stop offset="0%" stop-color="#D3D3D3" stop-opacity="1" /><stop offset="100%" stop-color="#FFFFFF" stop-opacity="1" /></linearGradient><linearGradient id="fs6" x1="0.999999105930328px" y1="-1.48866229210398E-06px" x2="0.999999105930328px" y2="0.999998152256012px"><stop offset="0%" stop-color="#FFFFFF" stop-opacity="0.5490196" /><stop offset="100%" stop-color="#FFFFFF" stop-opacity="0.1568628" /></linearGradient><linearGradient id="fs7" x1="0.999999225139618px" y1="-5.32283365828334E-07px" x2="0.999999046325684px" y2="0.999999284744263px"><stop offset="0%" stop-color="#D3D3D3" stop-opacity="1" /><stop offset="100%" stop-color="#FFFFFF" stop-opacity="1" /></linearGradient><linearGradient id="fs8" x1="0.999999046325684px" y1="-9.15527323286369E-07px" x2="0.99999874830246px" y2="0.999998807907104px"><stop offset="0%" stop-color="#FFFFFF" stop-opacity="0.5490196" /><stop offset="100%" stop-color="#FFFFFF" stop-opacity="0.1568628" /></linearGradient><linearGradient id="fs9" x1="0.99999326467514px" y1="-6.10351571594947E-06px" x2="0.999992072582245px" y2="0.999993920326233px"><stop offset="0%" stop-color="#D3D3D3" stop-opacity="1" /><stop offset="100%" stop-color="#FFFFFF" stop-opacity="1" /></linearGradient><linearGradient id="fs10" x1="0.999992072582245px" y1="-1.11649678729009E-05px" x2="0.999991476535797px" y2="0.999988853931427px"><stop offset="0%" stop-color="#FFFFFF" stop-opacity="0.5490196" /><stop offset="100%" stop-color="#FFFFFF" stop-opacity="0.1568628" /></linearGradient><linearGradient id="fs11" x1="0.999999761581421px" y1="-9.69838254150091E-08px" x2="0.999999701976776px" y2="0.999999582767487px"><stop offset="0%" stop-color="#D3D3D3" stop-opacity="1" /><stop offset="100%" stop-color="#FFFFFF" stop-opacity="1" /></linearGradient><linearGradient id="fs12" x1="0.999999582767487px" y1="-1.68295471780766E-07px" x2="0.999999344348907px" y2="0.999999642372131px"><stop offset="0%" stop-color="#FFFFFF" stop-opacity="0.5490196" /><stop offset="100%" stop-color="#FFFFFF" stop-opacity="0.1568628" /></linearGradient><clipPath id="cp1"><path d="M 327 21 L 519 21  519 93  327 93 z " /></clipPath><clipPath id="cp2"><path d="M 168 136 L 409 136  409 258  168 258 z " /></clipPath><clipPath id="cp3"><path d="M 7 136 L 149 136  149 208  7 208 z " /></clipPath><clipPath id="cp4"><path d="M 260 273 L 456 273  456 447  260 447 z " /></clipPath><clipPath id="cp5"><path d="M 530 404 L 632 404  632 476  530 476 z " /></clipPath><clipPath id="cp6"><path d="M 48 22 L 190 22  190 83  48 83 z " /></clipPath></defs><g transform="matrix(1 0 0 1 0 0)"><rect x="328px" y="22px" width="190px" height="70px" fill="url(#fs1)" /><path d="M 518 45.33333 C 423 45.33333  328 45.33333  328 62.83333 L 328 22  518 22  518 45.33333 z " fill="url(#fs2)" /><rect x="328px" y="22px" width="190px" height="70px" fill="none" stroke="#000000" stroke-width="1px" stroke-dashoffset="0" stroke-linejoin="round" stroke-miterlimit="10" /><g clip-path="url(#cp1)"><text x="379px" y="38.0911445617676px" font-family="Microsoft Sans Serif" font-size="10pt" font-weight="bold" font-style="italic" fill="#000000">CodeElement</text><line x1="328px" y1="43px" x2="518px" y2="43px" stroke="#000000" stroke-width="1px" stroke-dashoffset="0" stroke-linejoin="round" stroke-miterlimit="10" /><text x="330px" y="63.0911445617676px" font-family="Microsoft Sans Serif" font-size="10pt" fill="#000000">- id : Long</text><text x="330px" y="80.0911407470703px" font-family="Microsoft Sans Serif" font-size="10pt" fill="#000000">- versions : List</text><line x1="328px" y1="84px" x2="518px" y2="84px" stroke="#000000" stroke-width="1px" stroke-dashoffset="0" stroke-linejoin="round" stroke-miterlimit="10" /></g></g><g transform="matrix(1 0 0 1 0 0)"><rect x="169px" y="137px" width="239px" height="120px" fill="url(#fs3)" /><path d="M 408 177 C 288.5 177  169 177  169 207 L 169 137  408 137  408 177 z " fill="url(#fs4)" /><rect x="169px" y="137px" width="239px" height="120px" fill="none" stroke="#000000" stroke-width="1px" stroke-dashoffset="0" stroke-linejoin="round" stroke-miterlimit="10" /><g clip-path="url(#cp2)"><text x="264px" y="153.09114074707px" font-family="Microsoft Sans Serif" font-size="10pt" font-weight="bold" fill="#000000">Method</text><line x1="169px" y1="158px" x2="408px" y2="158px" stroke="#000000" stroke-width="1px" stroke-dashoffset="0" stroke-linejoin="round" stroke-miterlimit="10" /><text x="171px" y="178.09114074707px" font-family="Microsoft Sans Serif" font-size="10pt" fill="#000000">- signature : String</text><text x="171px" y="195.09114074707px" font-family="Microsoft Sans Serif" font-size="10pt" fill="#000000">- isPrivate : Boolean</text><text x="171px" y="211.09114074707px" font-family="Microsoft Sans Serif" font-size="10pt" fill="#000000">- isStatic : Boolean</text><line x1="169px" y1="216px" x2="408px" y2="216px" stroke="#000000" stroke-width="1px" stroke-dashoffset="0" stroke-linejoin="round" stroke-miterlimit="10" /><text x="171px" y="233.09114074707px" font-family="Microsoft Sans Serif" font-size="10pt" fill="#000000">+ getReferencedFields ():List</text><text x="171px" y="250.09114074707px" font-family="Microsoft Sans Serif" font-size="10pt" fill="#000000">+ getReferencedMethods ():List</text></g></g><g transform="matrix(1 0 0 1 0 0)"><rect x="8px" y="137px" width="140px" height="70px" fill="url(#fs5)" /><path d="M 148 160.3333 C 78 160.3333  8 160.3333  8 177.8333 L 8 137  148 137  148 160.3333 z " fill="url(#fs6)" /><rect x="8px" y="137px" width="140px" height="70px" fill="none" stroke="#000000" stroke-width="1px" stroke-dashoffset="0" stroke-linejoin="round" stroke-miterlimit="10" /><g clip-path="url(#cp3)"><text x="61px" y="153.09114074707px" font-family="Microsoft Sans Serif" font-size="10pt" font-weight="bold" fill="#000000">Field</text><line x1="8px" y1="158px" x2="148px" y2="158px" stroke="#000000" stroke-width="1px" stroke-dashoffset="0" stroke-linejoin="round" stroke-miterlimit="10" /><text x="10px" y="178.09114074707px" font-family="Microsoft Sans Serif" font-size="10pt" fill="#000000">- signature : String</text><text x="10px" y="195.09114074707px" font-family="Microsoft Sans Serif" font-size="10pt" fill="#000000">- isPrivate : Boolean</text><line x1="8px" y1="199px" x2="148px" y2="199px" stroke="#000000" stroke-width="1px" stroke-dashoffset="0" stroke-linejoin="round" stroke-miterlimit="10" /></g></g><g transform="matrix(1 0 0 1 0 0)"><rect x="261px" y="274px" width="194px" height="172px" fill="url(#fs7)" /><path d="M 455 331.3333 C 358 331.3333  261 331.3333  261 374.3333 L 261 274  455 274  455 331.3333 z " fill="url(#fs8)" /><rect x="261px" y="274px" width="194px" height="172px" fill="none" stroke="#000000" stroke-width="1px" stroke-dashoffset="0" stroke-linejoin="round" stroke-miterlimit="10" /><g clip-path="url(#cp4)"><text x="328px" y="290.091156005859px" font-family="Microsoft Sans Serif" font-size="10pt" font-weight="bold" fill="#000000">ApiClass</text><line x1="261px" y1="295px" x2="455px" y2="295px" stroke="#000000" stroke-width="1px" stroke-dashoffset="0" stroke-linejoin="round" stroke-miterlimit="10" /><text x="263px" y="315.091156005859px" font-family="Microsoft Sans Serif" font-size="10pt" fill="#000000">- packageName : String</text><text x="263px" y="332.091156005859px" font-family="Microsoft Sans Serif" font-size="10pt" fill="#000000">- simpleName : String</text><text x="263px" y="348.091156005859px" font-family="Microsoft Sans Serif" font-size="10pt" fill="#000000">- extends : String</text><text x="263px" y="365.091156005859px" font-family="Microsoft Sans Serif" font-size="10pt" fill="#000000">- implements : String</text><text x="263px" y="382.091156005859px" font-family="Microsoft Sans Serif" font-size="10pt" fill="#000000">- isPrivate : Boolean</text><text x="263px" y="399.091156005859px" font-family="Microsoft Sans Serif" font-size="10pt" fill="#000000">- isAnonymous : Boolean</text><line x1="261px" y1="403px" x2="455px" y2="403px" stroke="#000000" stroke-width="1px" stroke-dashoffset="0" stroke-linejoin="round" stroke-miterlimit="10" /><text x="263px" y="420.091156005859px" font-family="Microsoft Sans Serif" font-size="10pt" fill="#000000">+ getReferencedClasses ():List</text></g></g><g transform="matrix(1 0 0 1 0 0)"><rect x="531px" y="405px" width="100px" height="70px" fill="url(#fs9)" /><path d="M 631 428.3333 C 581 428.3333  531 428.3333  531 445.8333 L 531 405  631 405  631 428.3333 z " fill="url(#fs10)" /><rect x="531px" y="405px" width="100px" height="70px" fill="none" stroke="#000000" stroke-width="1px" stroke-dashoffset="0" stroke-linejoin="round" stroke-miterlimit="10" /><g clip-path="url(#cp5)"><text x="555px" y="421.091156005859px" font-family="Microsoft Sans Serif" font-size="10pt" font-weight="bold" fill="#000000">Product</text><line x1="531px" y1="426px" x2="631px" y2="426px" stroke="#000000" stroke-width="1px" stroke-dashoffset="0" stroke-linejoin="round" stroke-miterlimit="10" /><text x="533px" y="446.091156005859px" font-family="Microsoft Sans Serif" font-size="10pt" fill="#000000">- name : String</text><line x1="531px" y1="451px" x2="631px" y2="451px" stroke="#000000" stroke-width="1px" stroke-dashoffset="0" stroke-linejoin="round" stroke-miterlimit="10" /></g></g><g transform="matrix(1 0 0 1 0 0)"><rect x="49px" y="23px" width="140px" height="59px" fill="url(#fs11)" /><path d="M 189 42.66667 C 119 42.66667  49 42.66667  49 57.41667 L 49 23  189 23  189 42.66667 z " fill="url(#fs12)" /><rect x="49px" y="23px" width="140px" height="59px" fill="none" stroke="#000000" stroke-width="1px" stroke-dashoffset="0" stroke-linejoin="round" stroke-miterlimit="10" /><g clip-path="url(#cp6)"><text x="78px" y="39.0911445617676px" font-family="Microsoft Sans Serif" font-size="10pt" font-weight="bold" fill="#000000">Dependency</text><line x1="49px" y1="44px" x2="189px" y2="44px" stroke="#000000" stroke-width="1px" stroke-dashoffset="0" stroke-linejoin="round" stroke-miterlimit="10" /><text x="51px" y="64.0911407470703px" font-family="Microsoft Sans Serif" font-size="10pt" fill="#000000">- type : Integer</text><line x1="49px" y1="69px" x2="189px" y2="69px" stroke="#000000" stroke-width="1px" stroke-dashoffset="0" stroke-linejoin="round" stroke-miterlimit="10" /></g></g><g transform="matrix(1 0 0 1 0 0)"><polyline points="437,446 437,465 531,465 " fill="none" stroke="#000000" stroke-width="1px" stroke-dashoffset="0" stroke-linejoin="round" stroke-miterlimit="10" /><polygon points="531,465 517,460 501,465 517,470 " fill="#000000" /><text x="444px" y="463.091156005859px" font-family="Microsoft Sans Serif" font-size="10pt" fill="#000000">*</text><text x="380px" y="462.091156005859px" font-family="Microsoft Sans Serif" font-size="10pt" fill="#000000">+classes</text><text x="515px" y="484.091156005859px" font-family="Microsoft Sans Serif" font-size="10pt" fill="#000000">1</text><text x="475px" y="461.091156005859px" font-family="Microsoft Sans Serif" font-size="10pt" fill="#000000">+product</text></g><g transform="matrix(1 0 0 1 0 0)"><polyline points="188,257 188,355 261,355 " fill="none" stroke="#000000" stroke-width="1px" stroke-dashoffset="0" stroke-linejoin="round" stroke-miterlimit="10" /><polygon points="261,355 247,350 231,355 247,360 " fill="#000000" /><text x="195px" y="282.091156005859px" font-family="Microsoft Sans Serif" font-size="10pt" fill="#000000">*</text><text x="122px" y="272.091156005859px" font-family="Microsoft Sans Serif" font-size="10pt" fill="#000000">+methods</text></g><g transform="matrix(1 0 0 1 0 0)"><polyline points="78,207 79,355 261,355 " fill="none" stroke="#000000" stroke-width="1px" stroke-dashoffset="0" stroke-linejoin="round" stroke-miterlimit="10" /><polygon points="261,355 247,350 231,355 247,360 " fill="#000000" /><text x="84px" y="232.09114074707px" font-family="Microsoft Sans Serif" font-size="10pt" fill="#000000">*</text><text x="28px" y="232.09114074707px" font-family="Microsoft Sans Serif" font-size="10pt" fill="#000000">+fields</text><text x="247px" y="380.091156005859px" font-family="Microsoft Sans Serif" font-size="10pt" fill="#000000">1</text><text x="192px" y="350.091156005859px" font-family="Microsoft Sans Serif" font-size="10pt" fill="#000000">+apiClass</text></g><g transform="matrix(1 0 0 1 0 0)"><polyline points="78,137 78,122 430,121 429,92 " fill="none" stroke="#000000" stroke-width="1px" stroke-dashoffset="0" stroke-linejoin="round" stroke-miterlimit="10" /><polygon points="429,92 423,111 436,111 " fill="#FFFFFF" /><polygon fill="none" points="429,92 423,111 436,111 " stroke="#000000" stroke-width="1px" stroke-dashoffset="0" stroke-linejoin="round" stroke-miterlimit="10" /></g><g transform="matrix(1 0 0 1 0 0)"><polyline points="290,137 290,121 430,121 430,92 " fill="none" stroke="#000000" stroke-width="1px" stroke-dashoffset="0" stroke-linejoin="round" stroke-miterlimit="10" /><polygon points="430,92 424,111 436,111 " fill="#FFFFFF" /><polygon fill="none" points="430,92 424,111 436,111 " stroke="#000000" stroke-width="1px" stroke-dashoffset="0" stroke-linejoin="round" stroke-miterlimit="10" /><text x="301px" y="91.0911407470703px" font-family="Microsoft Sans Serif" font-size="10pt" font-weight="bold" fill="#000000">1</text></g><g transform="matrix(1 0 0 1 0 0)"><polyline points="430,274 430,92 " fill="none" stroke="#000000" stroke-width="1px" stroke-dashoffset="0" stroke-linejoin="round" stroke-miterlimit="10" /><polygon points="430,92 424,111 436,111 " fill="#FFFFFF" /><polygon fill="none" points="430,92 424,111 436,111 " stroke="#000000" stroke-width="1px" stroke-dashoffset="0" stroke-linejoin="round" stroke-miterlimit="10" /></g><g transform="matrix(1 0 0 1 0 0)"><polyline points="581,405 582,121 430,121 429,92 " fill="none" stroke="#000000" stroke-width="1px" stroke-dashoffset="0" stroke-linejoin="round" stroke-miterlimit="10" /><polygon points="429,92 423,111 436,111 " fill="#FFFFFF" /><polygon fill="none" points="429,92 423,111 436,111 " stroke="#000000" stroke-width="1px" stroke-dashoffset="0" stroke-linejoin="round" stroke-miterlimit="10" /></g><g transform="matrix(1 0 0 1 0 0)"><polyline points="189,33 328,33 " fill="none" stroke="#000000" stroke-width="1px" stroke-dashoffset="0" stroke-linejoin="round" stroke-miterlimit="10" /><line x1="328px" y1="33px" x2="310px" y2="25px" stroke="#000000" stroke-width="1px" stroke-dashoffset="0" stroke-linejoin="round" stroke-miterlimit="10" /><line x1="328px" y1="33px" x2="310px" y2="41px" stroke="#000000" stroke-width="1px" stroke-dashoffset="0" stroke-linejoin="round" stroke-miterlimit="10" /><text x="300px" y="48.0911445617676px" font-family="Microsoft Sans Serif" font-size="10pt" fill="#000000">1</text><text x="279px" y="31.0911445617676px" font-family="Microsoft Sans Serif" font-size="10pt" fill="#000000">+from</text></g><g transform="matrix(1 0 0 1 0 0)"><polyline points="189,76 328,76 " fill="none" stroke="#000000" stroke-width="1px" stroke-dashoffset="0" stroke-linejoin="round" stroke-miterlimit="10" /><line x1="328px" y1="76px" x2="310px" y2="68px" stroke="#000000" stroke-width="1px" stroke-dashoffset="0" stroke-linejoin="round" stroke-miterlimit="10" /><line x1="328px" y1="76px" x2="310px" y2="84px" stroke="#000000" stroke-width="1px" stroke-dashoffset="0" stroke-linejoin="round" stroke-miterlimit="10" /><text x="290px" y="74.0911407470703px" font-family="Microsoft Sans Serif" font-size="10pt" fill="#000000">+to</text></g></svg>