<?xml version="1.0" encoding="utf-8" standalone="no"?><!DOCTYPE svg PUBLIC "-//W3C//DTD SVG 1.1//EN" "http://www.w3.org/Graphics/SVG/1.1/DTD/svg11.dtd"><svg width="647px" height="492px" version="1.1" xmlns="http://www.w3.org/2000/svg"><desc /><defs><linearGradient id="fs1" x1="0.999998688697815px" y1="-3.26974060271823E-07px" x2="0.999998390674591px" y2="0.999999582767487px"><stop offset="0%" stop-color="#D3D3D3" stop-opacity="1" /><stop offset="100%" stop-color="#FFFFFF" stop-opacity="1" /></linearGradient><linearGradient id="fs2" x1="0.999998688697815px" y1="-4.65206994704204E-07px" x2="0.999998092651367px" y2="0.999999344348907px"><stop offset="0%" stop-color="#FFFFFF" stop-opacity="0.5490196" /><stop offset="100%" stop-color="#FFFFFF" stop-opacity="0.1568628" /></linearGradient><linearGradient id="fs3" x1="0.999999642372131px" y1="-2.54313164305131E-07px" x2="0.999999463558197px" y2="0.999999642372131px"><stop offset="0%" stop-color="#D3D3D3" stop-opacity="1" /><stop offset="100%" stop-color="#FFFFFF" stop-opacity="1" /></linearGradient><linearGradient id="fs4" x1="0.999999344348907px" y1="-4.35965404221861E-07px" x2="0.999999105930328px" y2="0.999999344348907px"><stop offset="0%" stop-color="#FFFFFF" stop-opacity="0.5490196" /><stop offset="100%" stop-color="#FFFFFF" stop-opacity="0.1568628" /></linearGradient><linearGradient id="fs5" x1="0.999999701976776px" y1="-3.26974060271823E-07px" x2="0.999999582767487px" y2="0.999999582767487px"><stop offset="0%" stop-color="#D3D3D3" stop-opacity="1" /><stop offset="100%" stop-color="#FFFFFF" stop-opacity="1" /></linearGradient><linearGradient id="fs6" x1="0.999999344348907px" y1="-7.44331146051991E-07px" x2="0.999999344348907px" y2="0.999998867511749px"><stop offset="0%" stop-color="#FFFFFF" stop-opacity="0.5490196" /><stop offset="100%" stop-color="#FFFFFF" stop-opacity="0.1568628" /></linearGradient><linearGradient id="fs7" x1="0.999999046325684px" y1="-3.54855558271083E-07px" x2="0.999998927116394px" y2="0.999999463558197px"><stop offset="0%" stop-color="#D3D3D3" stop-opacity="1" /><stop offset="100%" stop-color="#FFFFFF" stop-opacity="1" /></linearGradient><linearGradient id="fs8" x1="0.99999874830246px" y1="-9.15527323286369E-07px" x2="0.999998450279236px" y2="0.999999105930328px"><stop offset="0%" stop-color="#FFFFFF" stop-opacity="0.5490196" /><stop offset="100%" stop-color="#FFFFFF" stop-opacity="0.1568628" /></linearGradient><linearGradient id="fs9" x1="0.99999326467514px" y1="-1.74386161688744E-06px" x2="0.999992072582245px" y2="0.999998271465302px"><stop offset="0%" stop-color="#D3D3D3" stop-opacity="1" /><stop offset="100%" stop-color="#FFFFFF" stop-opacity="1" /></linearGradient><linearGradient id="fs10" x1="0.999992668628693px" y1="-4.46598687631194E-06px" x2="0.999992072582245px" y2="0.999994814395905px"><stop offset="0%" stop-color="#FFFFFF" stop-opacity="0.5490196" /><stop offset="100%" stop-color="#FFFFFF" stop-opacity="0.1568628" /></linearGradient><clipPath id="cp1"><path d="M 327 7 L 519 7  519 79  327 79 z " /></clipPath><clipPath id="cp2"><path d="M 168 121 L 409 121  409 243  168 243 z " /></clipPath><clipPath id="cp3"><path d="M 7 121 L 149 121  149 193  7 193 z " /></clipPath><clipPath id="cp4"><path d="M 260 258 L 456 258  456 432  260 432 z " /></clipPath><clipPath id="cp5"><path d="M 530 389 L 632 389  632 461  530 461 z " /></clipPath></defs><g transform="matrix(1 0 0 1 0 0)"><rect x="328px" y="8px" width="190px" height="70px" fill="url(#fs1)" /><path d="M 518 31.33333 C 423 31.33333  328 31.33333  328 48.83333 L 328 8  518 8  518 31.33333 z " fill="url(#fs2)" /><rect x="328px" y="8px" width="190px" height="70px" fill="none" stroke="#000000" stroke-width="1px" stroke-dashoffset="0" stroke-linejoin="round" stroke-miterlimit="10" /><g clip-path="url(#cp1)"><text x="379px" y="24.0911445617676px" font-family="Microsoft Sans Serif" font-size="10pt" font-weight="bold" font-style="italic" fill="#000000">CodeElement</text><line x1="328px" y1="29px" x2="518px" y2="29px" stroke="#000000" stroke-width="1px" stroke-dashoffset="0" stroke-linejoin="round" stroke-miterlimit="10" /><text x="330px" y="49.0911445617676px" font-family="Microsoft Sans Serif" font-size="10pt" fill="#000000">- id : Long</text><line x1="328px" y1="54px" x2="518px" y2="54px" stroke="#000000" stroke-width="1px" stroke-dashoffset="0" stroke-linejoin="round" stroke-miterlimit="10" /></g></g><g transform="matrix(1 0 0 1 0 0)"><rect x="169px" y="122px" width="239px" height="120px" fill="url(#fs3)" /><path d="M 408 162 C 288.5 162  169 162  169 192 L 169 122  408 122  408 162 z " fill="url(#fs4)" /><rect x="169px" y="122px" width="239px" height="120px" fill="none" stroke="#000000" stroke-width="1px" stroke-dashoffset="0" stroke-linejoin="round" stroke-miterlimit="10" /><g clip-path="url(#cp2)"><text x="264px" y="138.09114074707px" font-family="Microsoft Sans Serif" font-size="10pt" font-weight="bold" fill="#000000">Method</text><line x1="169px" y1="143px" x2="408px" y2="143px" stroke="#000000" stroke-width="1px" stroke-dashoffset="0" stroke-linejoin="round" stroke-miterlimit="10" /><text x="171px" y="163.09114074707px" font-family="Microsoft Sans Serif" font-size="10pt" fill="#000000">- signature : String</text><text x="171px" y="180.09114074707px" font-family="Microsoft Sans Serif" font-size="10pt" fill="#000000">- isPrivate : Boolean</text><text x="171px" y="196.09114074707px" font-family="Microsoft Sans Serif" font-size="10pt" fill="#000000">- isStatic : Boolean</text><line x1="169px" y1="201px" x2="408px" y2="201px" stroke="#000000" stroke-width="1px" stroke-dashoffset="0" stroke-linejoin="round" stroke-miterlimit="10" /><text x="171px" y="218.09114074707px" font-family="Microsoft Sans Serif" font-size="10pt" fill="#000000">+ getReferencedFields ():List</text><text x="171px" y="235.09114074707px" font-family="Microsoft Sans Serif" font-size="10pt" fill="#000000">+ getReferencedMethods ():List</text></g></g><g transform="matrix(1 0 0 1 0 0)"><rect x="8px" y="122px" width="140px" height="70px" fill="url(#fs5)" /><path d="M 148 145.3333 C 78 145.3333  8 145.3333  8 162.8333 L 8 122  148 122  148 145.3333 z " fill="url(#fs6)" /><rect x="8px" y="122px" width="140px" height="70px" fill="none" stroke="#000000" stroke-width="1px" stroke-dashoffset="0" stroke-linejoin="round" stroke-miterlimit="10" /><g clip-path="url(#cp3)"><text x="61px" y="138.09114074707px" font-family="Microsoft Sans Serif" font-size="10pt" font-weight="bold" fill="#000000">Field</text><line x1="8px" y1="143px" x2="148px" y2="143px" stroke="#000000" stroke-width="1px" stroke-dashoffset="0" stroke-linejoin="round" stroke-miterlimit="10" /><text x="10px" y="163.09114074707px" font-family="Microsoft Sans Serif" font-size="10pt" fill="#000000">- signature : String</text><text x="10px" y="180.09114074707px" font-family="Microsoft Sans Serif" font-size="10pt" fill="#000000">- isPrivate : Boolean</text><line x1="8px" y1="184px" x2="148px" y2="184px" stroke="#000000" stroke-width="1px" stroke-dashoffset="0" stroke-linejoin="round" stroke-miterlimit="10" /></g></g><g transform="matrix(1 0 0 1 0 0)"><rect x="261px" y="259px" width="194px" height="172px" fill="url(#fs7)" /><path d="M 455 316.3333 C 358 316.3333  261 316.3333  261 359.3333 L 261 259  455 259  455 316.3333 z " fill="url(#fs8)" /><rect x="261px" y="259px" width="194px" height="172px" fill="none" stroke="#000000" stroke-width="1px" stroke-dashoffset="0" stroke-linejoin="round" stroke-miterlimit="10" /><g clip-path="url(#cp4)"><text x="328px" y="275.091156005859px" font-family="Microsoft Sans Serif" font-size="10pt" font-weight="bold" fill="#000000">ApiClass</text><line x1="261px" y1="280px" x2="455px" y2="280px" stroke="#000000" stroke-width="1px" stroke-dashoffset="0" stroke-linejoin="round" stroke-miterlimit="10" /><text x="263px" y="300.091156005859px" font-family="Microsoft Sans Serif" font-size="10pt" fill="#000000">- packageName : String</text><text x="263px" y="317.091156005859px" font-family="Microsoft Sans Serif" font-size="10pt" fill="#000000">- simpleName : String</text><text x="263px" y="333.091156005859px" font-family="Microsoft Sans Serif" font-size="10pt" fill="#000000">- extends : String</text><text x="263px" y="350.091156005859px" font-family="Microsoft Sans Serif" font-size="10pt" fill="#000000">- implements : String</text><text x="263px" y="367.091156005859px" font-family="Microsoft Sans Serif" font-size="10pt" fill="#000000">- isPrivate : Boolean</text><text x="263px" y="384.091156005859px" font-family="Microsoft Sans Serif" font-size="10pt" fill="#000000">- isAnonymous : Boolean</text><line x1="261px" y1="388px" x2="455px" y2="388px" stroke="#000000" stroke-width="1px" stroke-dashoffset="0" stroke-linejoin="round" stroke-miterlimit="10" /><text x="263px" y="405.091156005859px" font-family="Microsoft Sans Serif" font-size="10pt" fill="#000000">+ getReferencedClasses ():List</text></g></g><g transform="matrix(1 0 0 1 0 0)"><rect x="531px" y="390px" width="100px" height="70px" fill="url(#fs9)" /><path d="M 631 413.3333 C 581 413.3333  531 413.3333  531 430.8333 L 531 390  631 390  631 413.3333 z " fill="url(#fs10)" /><rect x="531px" y="390px" width="100px" height="70px" fill="none" stroke="#000000" stroke-width="1px" stroke-dashoffset="0" stroke-linejoin="round" stroke-miterlimit="10" /><g clip-path="url(#cp5)"><text x="555px" y="406.091156005859px" font-family="Microsoft Sans Serif" font-size="10pt" font-weight="bold" fill="#000000">Product</text><line x1="531px" y1="411px" x2="631px" y2="411px" stroke="#000000" stroke-width="1px" stroke-dashoffset="0" stroke-linejoin="round" stroke-miterlimit="10" /><text x="533px" y="431.091156005859px" font-family="Microsoft Sans Serif" font-size="10pt" fill="#000000">- name : String</text><line x1="531px" y1="436px" x2="631px" y2="436px" stroke="#000000" stroke-width="1px" stroke-dashoffset="0" stroke-linejoin="round" stroke-miterlimit="10" /></g></g><g transform="matrix(1 0 0 1 0 0)"><polyline points="437,431 437,450 531,450 " fill="none" stroke="#000000" stroke-width="1px" stroke-dashoffset="0" stroke-linejoin="round" stroke-miterlimit="10" /><polygon points="531,450 517,445 501,450 517,455 " fill="#000000" /><text x="444px" y="448.091156005859px" font-family="Microsoft Sans Serif" font-size="10pt" fill="#000000">*</text><text x="380px" y="447.091156005859px" font-family="Microsoft Sans Serif" font-size="10pt" fill="#000000">+classes</text><text x="515px" y="469.091156005859px" font-family="Microsoft Sans Serif" font-size="10pt" fill="#000000">1</text><text x="475px" y="446.091156005859px" font-family="Microsoft Sans Serif" font-size="10pt" fill="#000000">+product</text></g><g transform="matrix(1 0 0 1 0 0)"><polyline points="188,242 188,340 261,340 " fill="none" stroke="#000000" stroke-width="1px" stroke-dashoffset="0" stroke-linejoin="round" stroke-miterlimit="10" /><polygon points="261,340 247,335 231,340 247,345 " fill="#000000" /><text x="195px" y="267.091156005859px" font-family="Microsoft Sans Serif" font-size="10pt" fill="#000000">*</text><text x="122px" y="257.091156005859px" font-family="Microsoft Sans Serif" font-size="10pt" fill="#000000">+methods</text></g><g transform="matrix(1 0 0 1 0 0)"><polyline points="78,192 79,340 261,340 " fill="none" stroke="#000000" stroke-width="1px" stroke-dashoffset="0" stroke-linejoin="round" stroke-miterlimit="10" /><polygon points="261,340 247,335 231,340 247,345 " fill="#000000" /><text x="85px" y="217.09114074707px" font-family="Microsoft Sans Serif" font-size="10pt" fill="#000000">*</text><text x="29px" y="217.09114074707px" font-family="Microsoft Sans Serif" font-size="10pt" fill="#000000">+fields</text><text x="247px" y="365.091156005859px" font-family="Microsoft Sans Serif" font-size="10pt" fill="#000000">1</text><text x="192px" y="335.091156005859px" font-family="Microsoft Sans Serif" font-size="10pt" fill="#000000">+apiClass</text></g><g transform="matrix(1 0 0 1 0 0)"><polyline points="78,122 78,107 430,106 429,78 " fill="none" stroke="#000000" stroke-width="1px" stroke-dashoffset="0" stroke-linejoin="round" stroke-miterlimit="10" /><polygon points="429,78 424,97 436,97 " fill="#FFFFFF" /><polygon fill="none" points="429,78 424,97 436,97 " stroke="#000000" stroke-width="1px" stroke-dashoffset="0" stroke-linejoin="round" stroke-miterlimit="10" /></g><g transform="matrix(1 0 0 1 0 0)"><polyline points="290,122 290,106 430,106 430,78 " fill="none" stroke="#000000" stroke-width="1px" stroke-dashoffset="0" stroke-linejoin="round" stroke-miterlimit="10" /><polygon points="430,78 424,97 436,97 " fill="#FFFFFF" /><polygon fill="none" points="430,78 424,97 436,97 " stroke="#000000" stroke-width="1px" stroke-dashoffset="0" stroke-linejoin="round" stroke-miterlimit="10" /></g><g transform="matrix(1 0 0 1 0 0)"><polyline points="430,259 430,78 " fill="none" stroke="#000000" stroke-width="1px" stroke-dashoffset="0" stroke-linejoin="round" stroke-miterlimit="10" /><polygon points="430,78 424,97 436,97 " fill="#FFFFFF" /><polygon fill="none" points="430,78 424,97 436,97 " stroke="#000000" stroke-width="1px" stroke-dashoffset="0" stroke-linejoin="round" stroke-miterlimit="10" /></g><g transform="matrix(1 0 0 1 0 0)"><polyline points="581,390 582,106 430,106 429,78 " fill="none" stroke="#000000" stroke-width="1px" stroke-dashoffset="0" stroke-linejoin="round" stroke-miterlimit="10" /><polygon points="429,78 424,97 436,97 " fill="#FFFFFF" /><polygon fill="none" points="429,78 424,97 436,97 " stroke="#000000" stroke-width="1px" stroke-dashoffset="0" stroke-linejoin="round" stroke-miterlimit="10" /></g></svg>