<?xml version="1.0" encoding="utf-8" standalone="no"?><!DOCTYPE svg PUBLIC "-//W3C//DTD SVG 1.1//EN" "http://www.w3.org/Graphics/SVG/1.1/DTD/svg11.dtd"><svg width="644px" height="587px" version="1.1" xmlns="http://www.w3.org/2000/svg"><desc /><defs><linearGradient id="fs1" x1="0.999999344348907px" y1="-2.72478388296804E-07px" x2="0.999999046325684px" y2="0.999999463558197px"><stop offset="0%" stop-color="#D3D3D3" stop-opacity="1" /><stop offset="100%" stop-color="#FFFFFF" stop-opacity="1" /></linearGradient><linearGradient id="fs2" x1="0.999999225139618px" y1="-3.25644890608601E-07px" x2="0.999998867511749px" y2="0.999999284744263px"><stop offset="0%" stop-color="#FFFFFF" stop-opacity="0.5490196" /><stop offset="100%" stop-color="#FFFFFF" stop-opacity="0.1568628" /></linearGradient><linearGradient id="fs3" x1="0.999999463558197px" y1="-5.08626328610262E-07px" x2="0.999999165534973px" y2="0.999999225139618px"><stop offset="0%" stop-color="#D3D3D3" stop-opacity="1" /><stop offset="100%" stop-color="#FFFFFF" stop-opacity="1" /></linearGradient><linearGradient id="fs4" x1="0.999998986721039px" y1="-1.30789624108729E-06px" x2="0.99999862909317px" y2="0.999998271465302px"><stop offset="0%" stop-color="#FFFFFF" stop-opacity="0.5490196" /><stop offset="100%" stop-color="#FFFFFF" stop-opacity="0.1568628" /></linearGradient><linearGradient id="fs5" x1="0.999999344348907px" y1="-1.52587892898737E-06px" x2="0.999999344348907px" y2="0.999998271465302px"><stop offset="0%" stop-color="#D3D3D3" stop-opacity="1" /><stop offset="100%" stop-color="#FFFFFF" stop-opacity="1" /></linearGradient><linearGradient id="fs6" x1="0.999998688697815px" y1="-4.09382164434646E-06px" x2="0.999998688697815px" y2="0.999995529651642px"><stop offset="0%" stop-color="#FFFFFF" stop-opacity="0.5490196" /><stop offset="100%" stop-color="#FFFFFF" stop-opacity="0.1568628" /></linearGradient><linearGradient id="fs7" x1="0.999998211860657px" y1="-8.97575830549613E-07px" x2="0.999998033046722px" y2="0.999998927116394px"><stop offset="0%" stop-color="#D3D3D3" stop-opacity="1" /><stop offset="100%" stop-color="#FFFFFF" stop-opacity="1" /></linearGradient><linearGradient id="fs8" x1="0.999998569488525px" y1="-1.84955024451483E-06px" x2="0.999998211860657px" y2="0.999997854232788px"><stop offset="0%" stop-color="#FFFFFF" stop-opacity="0.5490196" /><stop offset="100%" stop-color="#FFFFFF" stop-opacity="0.1568628" /></linearGradient><linearGradient id="fs9" x1="0.999991297721863px" y1="-1.13351006802986E-05px" x2="0.999989688396454px" y2="0.999987781047821px"><stop offset="0%" stop-color="#D3D3D3" stop-opacity="1" /><stop offset="100%" stop-color="#FFFFFF" stop-opacity="1" /></linearGradient><linearGradient id="fs10" x1="0.999989688396454px" y1="-9.67630512604956E-06px" x2="0.99998813867569px" y2="0.999989569187164px"><stop offset="0%" stop-color="#FFFFFF" stop-opacity="0.5490196" /><stop offset="100%" stop-color="#FFFFFF" stop-opacity="0.1568628" /></linearGradient><linearGradient id="fs11" x1="0.999997794628143px" y1="-7.62939464493684E-07px" x2="0.99999737739563px" y2="0.99999874830246px"><stop offset="0%" stop-color="#D3D3D3" stop-opacity="1" /><stop offset="100%" stop-color="#FFFFFF" stop-opacity="1" /></linearGradient><linearGradient id="fs12" x1="0.999998271465302px" y1="-4.35965404221861E-07px" x2="0.99999737739563px" y2="0.999999105930328px"><stop offset="0%" stop-color="#FFFFFF" stop-opacity="0.5490196" /><stop offset="100%" stop-color="#FFFFFF" stop-opacity="0.1568628" /></linearGradient><linearGradient id="fs13" x1="0.999996364116669px" y1="-1.33849027861288E-06px" x2="0.999995946884155px" y2="0.999998688697815px"><stop offset="0%" stop-color="#D3D3D3" stop-opacity="1" /><stop offset="100%" stop-color="#FFFFFF" stop-opacity="1" /></linearGradient><linearGradient id="fs14" x1="0.999994695186615px" y1="-2.31193780564354E-06px" x2="0.999993920326233px" y2="0.999997675418854px"><stop offset="0%" stop-color="#FFFFFF" stop-opacity="0.5490196" /><stop offset="100%" stop-color="#FFFFFF" stop-opacity="0.1568628" /></linearGradient><linearGradient id="fs15" x1="0.999999821186066px" y1="-2.72478377638663E-08px" x2="0.999999701976776px" y2="0.999999701976776px"><stop offset="0%" stop-color="#D3D3D3" stop-opacity="1" /><stop offset="100%" stop-color="#FFFFFF" stop-opacity="1" /></linearGradient><linearGradient id="fs16" x1="0.999999821186066px" y1="-9.30413932564989E-08px" x2="0.999999642372131px" y2="0.999999642372131px"><stop offset="0%" stop-color="#FFFFFF" stop-opacity="0.5490196" /><stop offset="100%" stop-color="#FFFFFF" stop-opacity="0.1568628" /></linearGradient><clipPath id="cp1"><path d="M 237 30 L 429 30  429 102  237 102 z " /></clipPath><clipPath id="cp2"><path d="M 167 220 L 349 220  349 342  167 342 z " /></clipPath><clipPath id="cp3"><path d="M 7 220 L 149 220  149 292  7 292 z " /></clipPath><clipPath id="cp4"><path d="M 243 400 L 416 400  416 572  243 572 z " /></clipPath><clipPath id="cp5"><path d="M 531 498 L 610 498  610 570  531 570 z " /></clipPath><clipPath id="cp6"><path d="M 487 32 L 629 32  629 94  487 94 z " /></clipPath><clipPath id="cp7"><path d="M 474 130 L 626 130  626 189  474 189 z " /></clipPath><clipPath id="cp8"><path d="M 7 30 L 169 30  169 172  7 172 z " /></clipPath></defs><g transform="matrix(1 0 0 1 0 0)"><rect x="238px" y="31px" width="190px" height="70px" fill="url(#fs1)" /><path d="M 428 54.33333 C 333 54.33333  238 54.33333  238 71.83334 L 238 31  428 31  428 54.33333 z " fill="url(#fs2)" /><rect x="238px" y="31px" width="190px" height="70px" fill="none" stroke="#000000" stroke-width="1px" stroke-dashoffset="0" stroke-linejoin="round" stroke-miterlimit="10" /><g clip-path="url(#cp1)"><text x="289px" y="47.0911445617676px" font-family="Microsoft Sans Serif" font-size="10pt" font-weight="bold" font-style="italic" fill="#000000">CodeElement</text><line x1="238px" y1="52px" x2="428px" y2="52px" stroke="#000000" stroke-width="1px" stroke-dashoffset="0" stroke-linejoin="round" stroke-miterlimit="10" /><text x="240px" y="72.0911407470703px" font-family="Microsoft Sans Serif" font-size="10pt" fill="#000000">- id</text><text x="240px" y="89.0911407470703px" font-family="Microsoft Sans Serif" font-size="10pt" fill="#000000">- versions</text><line x1="238px" y1="93px" x2="428px" y2="93px" stroke="#000000" stroke-width="1px" stroke-dashoffset="0" stroke-linejoin="round" stroke-miterlimit="10" /></g></g><g transform="matrix(1 0 0 1 0 0)"><rect x="168px" y="221px" width="180px" height="120px" fill="url(#fs3)" /><path d="M 348 261 C 258 261  168 261  168 291 L 168 221  348 221  348 261 z " fill="url(#fs4)" /><rect x="168px" y="221px" width="180px" height="120px" fill="none" stroke="#000000" stroke-width="1px" stroke-dashoffset="0" stroke-linejoin="round" stroke-miterlimit="10" /><g clip-path="url(#cp2)"><text x="233px" y="237.09114074707px" font-family="Microsoft Sans Serif" font-size="10pt" font-weight="bold" fill="#000000">Method</text><line x1="168px" y1="242px" x2="348px" y2="242px" stroke="#000000" stroke-width="1px" stroke-dashoffset="0" stroke-linejoin="round" stroke-miterlimit="10" /><text x="170px" y="262.091156005859px" font-family="Microsoft Sans Serif" font-size="10pt" fill="#000000">- signature</text><text x="170px" y="279.091156005859px" font-family="Microsoft Sans Serif" font-size="10pt" fill="#000000">- isPrivate</text><text x="170px" y="295.091156005859px" font-family="Microsoft Sans Serif" font-size="10pt" fill="#000000">- isStatic</text><line x1="168px" y1="300px" x2="348px" y2="300px" stroke="#000000" stroke-width="1px" stroke-dashoffset="0" stroke-linejoin="round" stroke-miterlimit="10" /><text x="170px" y="317.091156005859px" font-family="Microsoft Sans Serif" font-size="10pt" fill="#000000">+ getReferencedFields ()</text><text x="170px" y="334.091156005859px" font-family="Microsoft Sans Serif" font-size="10pt" fill="#000000">+ getReferencedMethods ()</text></g></g><g transform="matrix(1 0 0 1 0 0)"><rect x="8px" y="221px" width="140px" height="70px" fill="url(#fs5)" /><path d="M 148 244.3333 C 78 244.3333  8 244.3333  8 261.8333 L 8 221  148 221  148 244.3333 z " fill="url(#fs6)" /><rect x="8px" y="221px" width="140px" height="70px" fill="none" stroke="#000000" stroke-width="1px" stroke-dashoffset="0" stroke-linejoin="round" stroke-miterlimit="10" /><g clip-path="url(#cp3)"><text x="61px" y="237.09114074707px" font-family="Microsoft Sans Serif" font-size="10pt" font-weight="bold" fill="#000000">Field</text><line x1="8px" y1="242px" x2="148px" y2="242px" stroke="#000000" stroke-width="1px" stroke-dashoffset="0" stroke-linejoin="round" stroke-miterlimit="10" /><text x="10px" y="262.091156005859px" font-family="Microsoft Sans Serif" font-size="10pt" fill="#000000">- signature</text><text x="10px" y="279.091156005859px" font-family="Microsoft Sans Serif" font-size="10pt" fill="#000000">- isPrivate</text><line x1="8px" y1="283px" x2="148px" y2="283px" stroke="#000000" stroke-width="1px" stroke-dashoffset="0" stroke-linejoin="round" stroke-miterlimit="10" /></g></g><g transform="matrix(1 0 0 1 0 0)"><rect x="244px" y="401px" width="171px" height="170px" fill="url(#fs7)" /><path d="M 415 457.6667 C 329.5 457.6667  244 457.6667  244 500.1667 L 244 401  415 401  415 457.6667 z " fill="url(#fs8)" /><rect x="244px" y="401px" width="171px" height="170px" fill="none" stroke="#000000" stroke-width="1px" stroke-dashoffset="0" stroke-linejoin="round" stroke-miterlimit="10" /><g clip-path="url(#cp4)"><text x="300px" y="417.091156005859px" font-family="Microsoft Sans Serif" font-size="10pt" font-weight="bold" fill="#000000">ApiClass</text><line x1="244px" y1="422px" x2="415px" y2="422px" stroke="#000000" stroke-width="1px" stroke-dashoffset="0" stroke-linejoin="round" stroke-miterlimit="10" /><text x="246px" y="442.091156005859px" font-family="Microsoft Sans Serif" font-size="10pt" fill="#000000">- packageName</text><text x="246px" y="459.091156005859px" font-family="Microsoft Sans Serif" font-size="10pt" fill="#000000">- simpleName</text><text x="246px" y="475.091156005859px" font-family="Microsoft Sans Serif" font-size="10pt" fill="#000000">- extends</text><text x="246px" y="492.091156005859px" font-family="Microsoft Sans Serif" font-size="10pt" fill="#000000">- implements</text><text x="246px" y="509.091156005859px" font-family="Microsoft Sans Serif" font-size="10pt" fill="#000000">- isPrivate</text><text x="246px" y="526.091125488281px" font-family="Microsoft Sans Serif" font-size="10pt" fill="#000000">- isAnonymous</text><line x1="244px" y1="530px" x2="415px" y2="530px" stroke="#000000" stroke-width="1px" stroke-dashoffset="0" stroke-linejoin="round" stroke-miterlimit="10" /><text x="246px" y="547.091125488281px" font-family="Microsoft Sans Serif" font-size="10pt" fill="#000000">+ getSourcePath ()</text><text x="246px" y="564.091125488281px" font-family="Microsoft Sans Serif" font-size="10pt" fill="#000000">+ getReferencedClasses ()</text></g></g><g transform="matrix(1 0 0 1 0 0)"><rect x="532px" y="499px" width="77px" height="70px" fill="url(#fs9)" /><path d="M 609 522.3333 C 570.5 522.3333  532 522.3333  532 539.8333 L 532 499  609 499  609 522.3333 z " fill="url(#fs10)" /><rect x="532px" y="499px" width="77px" height="70px" fill="none" stroke="#000000" stroke-width="1px" stroke-dashoffset="0" stroke-linejoin="round" stroke-miterlimit="10" /><g clip-path="url(#cp5)"><text x="544px" y="515.091125488281px" font-family="Microsoft Sans Serif" font-size="10pt" font-weight="bold" fill="#000000">Product</text><line x1="532px" y1="520px" x2="609px" y2="520px" stroke="#000000" stroke-width="1px" stroke-dashoffset="0" stroke-linejoin="round" stroke-miterlimit="10" /><text x="534px" y="540.091125488281px" font-family="Microsoft Sans Serif" font-size="10pt" fill="#000000">- name</text><line x1="532px" y1="545px" x2="609px" y2="545px" stroke="#000000" stroke-width="1px" stroke-dashoffset="0" stroke-linejoin="round" stroke-miterlimit="10" /></g></g><g transform="matrix(1 0 0 1 0 0)"><rect x="488px" y="33px" width="140px" height="60px" fill="url(#fs11)" /><path d="M 628 53 C 558 53  488 53  488 68 L 488 33  628 33  628 53 z " fill="url(#fs12)" /><rect x="488px" y="33px" width="140px" height="60px" fill="none" stroke="#000000" stroke-width="1px" stroke-dashoffset="0" stroke-linejoin="round" stroke-miterlimit="10" /><g clip-path="url(#cp6)"><text x="517px" y="49.0911445617676px" font-family="Microsoft Sans Serif" font-size="10pt" font-weight="bold" fill="#000000">Dependency</text><line x1="488px" y1="54px" x2="628px" y2="54px" stroke="#000000" stroke-width="1px" stroke-dashoffset="0" stroke-linejoin="round" stroke-miterlimit="10" /><text x="490px" y="74.0911407470703px" font-family="Microsoft Sans Serif" font-size="10pt" fill="#000000">- type</text><line x1="488px" y1="79px" x2="628px" y2="79px" stroke="#000000" stroke-width="1px" stroke-dashoffset="0" stroke-linejoin="round" stroke-miterlimit="10" /></g></g><g transform="matrix(1 0 0 1 0 0)"><rect x="475px" y="131px" width="150px" height="57px" fill="url(#fs13)" /><path d="M 625 150 C 550 150  475 150  475 164.25 L 475 131  625 131  625 150 z " fill="url(#fs14)" /><rect x="475px" y="131px" width="150px" height="57px" fill="none" stroke="#000000" stroke-width="1px" stroke-dashoffset="0" stroke-linejoin="round" stroke-miterlimit="10" /><g clip-path="url(#cp7)"><text x="481px" y="147.09114074707px" font-family="Microsoft Sans Serif" font-size="10pt" font-weight="bold" fill="#000000">TransitiveDependency</text><line x1="475px" y1="152px" x2="625px" y2="152px" stroke="#000000" stroke-width="1px" stroke-dashoffset="0" stroke-linejoin="round" stroke-miterlimit="10" /><line x1="475px" y1="160px" x2="625px" y2="160px" stroke="#000000" stroke-width="1px" stroke-dashoffset="0" stroke-linejoin="round" stroke-miterlimit="10" /><text x="477px" y="177.09114074707px" font-family="Microsoft Sans Serif" font-size="10pt" fill="#000000">+ getTransitiveFrom ()</text></g></g><g transform="matrix(1 0 0 1 0 0)"><rect x="8px" y="31px" width="160px" height="140px" fill="url(#fs15)" /><path d="M 168 77.66666 C 88 77.66666  8 77.66666  8 112.6667 L 8 31  168 31  168 77.66666 z " fill="url(#fs16)" /><rect x="8px" y="31px" width="160px" height="140px" fill="none" stroke="#000000" stroke-width="1px" stroke-dashoffset="0" stroke-linejoin="round" stroke-miterlimit="10" /><g clip-path="url(#cp8)"><text x="46px" y="44.58203125px" font-family="Microsoft Sans Serif" font-size="9pt" font-style="italic" fill="#1E1E1E">«enumeration»</text><text x="30px" y="62.0911445617676px" font-family="Microsoft Sans Serif" font-size="10pt" font-weight="bold" fill="#000000">DependencyType</text><line x1="8px" y1="67px" x2="168px" y2="67px" stroke="#000000" stroke-width="1px" stroke-dashoffset="0" stroke-linejoin="round" stroke-miterlimit="10" /><text x="10px" y="87.0911407470703px" font-family="Microsoft Sans Serif" font-size="10pt" fill="#000000">- METHOD_CALL</text><text x="10px" y="104.09114074707px" font-family="Microsoft Sans Serif" font-size="10pt" fill="#000000">- METHOD_OVERRIDE</text><text x="10px" y="120.09114074707px" font-family="Microsoft Sans Serif" font-size="10pt" fill="#000000">- FIELD_REFERENCE</text><text x="10px" y="137.09114074707px" font-family="Microsoft Sans Serif" font-size="10pt" fill="#000000">- CLASS_USAGE</text><text x="10px" y="154.09114074707px" font-family="Microsoft Sans Serif" font-size="10pt" fill="#000000">- CLASS_INHERITANCE</text><line x1="8px" y1="159px" x2="168px" y2="159px" stroke="#000000" stroke-width="1px" stroke-dashoffset="0" stroke-linejoin="round" stroke-miterlimit="10" /></g></g><g transform="matrix(1 0 0 1 0 0)"><polyline points="415,529 532,529 " fill="none" stroke="#000000" stroke-width="1px" stroke-dashoffset="0" stroke-linejoin="round" stroke-miterlimit="10" /><polygon points="532,529 518,524 502,529 518,534 " fill="#000000" /><text x="418px" y="549.091125488281px" font-family="Microsoft Sans Serif" font-size="10pt" fill="#000000">*</text><text x="414px" y="526.091125488281px" font-family="Microsoft Sans Serif" font-size="10pt" fill="#000000">+classes</text><text x="518px" y="524.091125488281px" font-family="Microsoft Sans Serif" font-size="10pt" fill="#000000">1</text><text x="478px" y="549.091125488281px" font-family="Microsoft Sans Serif" font-size="10pt" fill="#000000">+product</text></g><g transform="matrix(1 0 0 1 0 0)"><polyline points="183,341 183,481 244,481 " fill="none" stroke="#000000" stroke-width="1px" stroke-dashoffset="0" stroke-linejoin="round" stroke-miterlimit="10" /><polygon points="244,481 230,476 214,481 230,486 " fill="#000000" /><text x="190px" y="366.091156005859px" font-family="Microsoft Sans Serif" font-size="10pt" fill="#000000">*</text><text x="114px" y="366.091156005859px" font-family="Microsoft Sans Serif" font-size="10pt" fill="#000000">+methods</text></g><g transform="matrix(1 0 0 1 0 0)"><polyline points="78,291 78,481 244,481 " fill="none" stroke="#000000" stroke-width="1px" stroke-dashoffset="0" stroke-linejoin="round" stroke-miterlimit="10" /><polygon points="244,481 230,476 214,481 230,486 " fill="#000000" /><text x="85px" y="316.091156005859px" font-family="Microsoft Sans Serif" font-size="10pt" fill="#000000">*</text><text x="29px" y="316.091156005859px" font-family="Microsoft Sans Serif" font-size="10pt" fill="#000000">+fields</text><text x="230px" y="506.091156005859px" font-family="Microsoft Sans Serif" font-size="10pt" fill="#000000">1</text><text x="175px" y="476.091156005859px" font-family="Microsoft Sans Serif" font-size="10pt" fill="#000000">+apiClass</text></g><g transform="matrix(1 0 0 1 0 0)"><polyline points="488,55 458,41 428,52 " fill="none" stroke="#000000" stroke-width="1px" stroke-dashoffset="0" stroke-linejoin="round" stroke-miterlimit="10" /><line x1="428px" y1="52px" x2="448px" y2="54px" stroke="#000000" stroke-width="1px" stroke-dashoffset="0" stroke-linejoin="round" stroke-miterlimit="10" /><line x1="428px" y1="52px" x2="442px" y2="38px" stroke="#000000" stroke-width="1px" stroke-dashoffset="0" stroke-linejoin="round" stroke-miterlimit="10" /><text x="454px" y="66.0911407470703px" font-family="Microsoft Sans Serif" font-size="10pt" fill="#000000">1</text><text x="441px" y="36.0911445617676px" font-family="Microsoft Sans Serif" font-size="10pt" fill="#000000">+from</text></g><g transform="matrix(1 0 0 1 0 0)"><polyline points="488,78 458,91 428,73 " fill="none" stroke="#000000" stroke-width="1px" stroke-dashoffset="0" stroke-linejoin="round" stroke-miterlimit="10" /><line x1="428px" y1="73px" x2="439px" y2="90px" stroke="#000000" stroke-width="1px" stroke-dashoffset="0" stroke-linejoin="round" stroke-miterlimit="10" /><line x1="428px" y1="73px" x2="448px" y2="75px" stroke="#000000" stroke-width="1px" stroke-dashoffset="0" stroke-linejoin="round" stroke-miterlimit="10" /><text x="454px" y="86.0911407470703px" font-family="Microsoft Sans Serif" font-size="10pt" fill="#000000">1</text><text x="434px" y="107.09114074707px" font-family="Microsoft Sans Serif" font-size="10pt" fill="#000000">+to</text></g><g transform="matrix(1 0 0 1 0 0)"><polyline points="555,131 556,93 " fill="none" stroke="#000000" stroke-width="1px" stroke-dashoffset="0" stroke-linejoin="round" stroke-miterlimit="10" /><polygon points="556,93 549,112 562,112 " fill="#FFFFFF" /><polygon fill="none" points="556,93 549,112 562,112 " stroke="#000000" stroke-width="1px" stroke-dashoffset="0" stroke-linejoin="round" stroke-miterlimit="10" /></g><g transform="matrix(1 0 0 1 0 0)"><polyline points="78,221 78,181 398,181 398,101 " fill="none" stroke="#000000" stroke-width="1px" stroke-dashoffset="0" stroke-linejoin="round" stroke-miterlimit="10" /><polygon points="398,101 392,120 404,120 " fill="#FFFFFF" /><polygon fill="none" points="398,101 392,120 404,120 " stroke="#000000" stroke-width="1px" stroke-dashoffset="0" stroke-linejoin="round" stroke-miterlimit="10" /></g><g transform="matrix(1 0 0 1 0 0)"><polyline points="258,221 258,181 398,181 398,101 " fill="none" stroke="#000000" stroke-width="1px" stroke-dashoffset="0" stroke-linejoin="round" stroke-miterlimit="10" /><polygon points="398,101 392,120 404,120 " fill="#FFFFFF" /><polygon fill="none" points="398,101 392,120 404,120 " stroke="#000000" stroke-width="1px" stroke-dashoffset="0" stroke-linejoin="round" stroke-miterlimit="10" /></g><g transform="matrix(1 0 0 1 0 0)"><polyline points="398,401 398,321 398,101 " fill="none" stroke="#000000" stroke-width="1px" stroke-dashoffset="0" stroke-linejoin="round" stroke-miterlimit="10" /><polygon points="398,101 392,120 404,120 " fill="#FFFFFF" /><polygon fill="none" points="398,101 392,120 404,120 " stroke="#000000" stroke-width="1px" stroke-dashoffset="0" stroke-linejoin="round" stroke-miterlimit="10" /></g><g transform="matrix(1 0 0 1 0 0)"><polyline points="570,499 570,320 398,321 398,101 " fill="none" stroke="#000000" stroke-width="1px" stroke-dashoffset="0" stroke-linejoin="round" stroke-miterlimit="10" /><polygon points="398,101 392,120 404,120 " fill="#FFFFFF" /><polygon fill="none" points="398,101 392,120 404,120 " stroke="#000000" stroke-width="1px" stroke-dashoffset="0" stroke-linejoin="round" stroke-miterlimit="10" /></g></svg>