<?xml version="1.0" encoding="utf-8" standalone="no"?><!DOCTYPE svg PUBLIC "-//W3C//DTD SVG 1.1//EN" "http://www.w3.org/Graphics/SVG/1.1/DTD/svg11.dtd"><svg width="644px" height="588px" version="1.1" xmlns="http://www.w3.org/2000/svg"><desc /><defs><linearGradient id="fs1" x1="0.999999344348907px" y1="-2.72478388296804E-07px" x2="0.999999225139618px" y2="0.999999463558197px"><stop offset="0%" stop-color="#D3D3D3" stop-opacity="1" /><stop offset="100%" stop-color="#FFFFFF" stop-opacity="1" /></linearGradient><linearGradient id="fs2" x1="0.999999225139618px" y1="-3.25644890608601E-07px" x2="0.999998867511749px" y2="0.999999284744263px"><stop offset="0%" stop-color="#FFFFFF" stop-opacity="0.5490196" /><stop offset="100%" stop-color="#FFFFFF" stop-opacity="0.1568628" /></linearGradient><linearGradient id="fs3" x1="0.999999463558197px" y1="-5.08626328610262E-07px" x2="0.999999165534973px" y2="0.999999225139618px"><stop offset="0%" stop-color="#D3D3D3" stop-opacity="1" /><stop offset="100%" stop-color="#FFFFFF" stop-opacity="1" /></linearGradient><linearGradient id="fs4" x1="0.999998986721039px" y1="-1.30789624108729E-06px" x2="0.99999862909317px" y2="0.999998271465302px"><stop offset="0%" stop-color="#FFFFFF" stop-opacity="0.5490196" /><stop offset="100%" stop-color="#FFFFFF" stop-opacity="0.1568628" /></linearGradient><linearGradient id="fs5" x1="0.999999344348907px" y1="-1.52587892898737E-06px" x2="0.999999344348907px" y2="0.999998271465302px"><stop offset="0%" stop-color="#D3D3D3" stop-opacity="1" /><stop offset="100%" stop-color="#FFFFFF" stop-opacity="1" /></linearGradient><linearGradient id="fs6" x1="0.999998688697815px" y1="-4.09382164434646E-06px" x2="0.999998688697815px" y2="0.999995529651642px"><stop offset="0%" stop-color="#FFFFFF" stop-opacity="0.5490196" /><stop offset="100%" stop-color="#FFFFFF" stop-opacity="0.1568628" /></linearGradient><linearGradient id="fs7" x1="0.99999874830246px" y1="-5.38545521067135E-07px" x2="0.999998569488525px" y2="0.999999284744263px"><stop offset="0%" stop-color="#D3D3D3" stop-opacity="1" /><stop offset="100%" stop-color="#FFFFFF" stop-opacity="1" /></linearGradient><linearGradient id="fs8" x1="0.999998927116394px" y1="-2.46606691689522E-06px" x2="0.999998569488525px" y2="0.999997198581696px"><stop offset="0%" stop-color="#FFFFFF" stop-opacity="0.5490196" /><stop offset="100%" stop-color="#FFFFFF" stop-opacity="0.1568628" /></linearGradient><linearGradient id="fs9" x1="0.999987304210663px" y1="-6.10351571594947E-06px" x2="0.999985754489899px" y2="0.999993026256561px"><stop offset="0%" stop-color="#D3D3D3" stop-opacity="1" /><stop offset="100%" stop-color="#FFFFFF" stop-opacity="1" /></linearGradient><linearGradient id="fs10" x1="0.999984920024872px" y1="-1.78639475052478E-05px" x2="0.999983370304108px" y2="0.999982118606567px"><stop offset="0%" stop-color="#FFFFFF" stop-opacity="0.5490196" /><stop offset="100%" stop-color="#FFFFFF" stop-opacity="0.1568628" /></linearGradient><linearGradient id="fs11" x1="0.999997794628143px" y1="-7.62939464493684E-07px" x2="0.99999737739563px" y2="0.99999874830246px"><stop offset="0%" stop-color="#D3D3D3" stop-opacity="1" /><stop offset="100%" stop-color="#FFFFFF" stop-opacity="1" /></linearGradient><linearGradient id="fs12" x1="0.999998271465302px" y1="-4.35965404221861E-07px" x2="0.99999737739563px" y2="0.999999105930328px"><stop offset="0%" stop-color="#FFFFFF" stop-opacity="0.5490196" /><stop offset="100%" stop-color="#FFFFFF" stop-opacity="0.1568628" /></linearGradient><linearGradient id="fs13" x1="0.999997556209564px" y1="-1.33849027861288E-06px" x2="0.999997138977051px" y2="0.999998688697815px"><stop offset="0%" stop-color="#D3D3D3" stop-opacity="1" /><stop offset="100%" stop-color="#FFFFFF" stop-opacity="1" /></linearGradient><linearGradient id="fs14" x1="0.999994695186615px" y1="-2.31193780564354E-06px" x2="0.999993920326233px" y2="0.999997675418854px"><stop offset="0%" stop-color="#FFFFFF" stop-opacity="0.5490196" /><stop offset="100%" stop-color="#FFFFFF" stop-opacity="0.1568628" /></linearGradient><linearGradient id="fs15" x1="0.999999821186066px" y1="-2.72478377638663E-08px" x2="0.999999642372131px" y2="0.999999701976776px"><stop offset="0%" stop-color="#D3D3D3" stop-opacity="1" /><stop offset="100%" stop-color="#FFFFFF" stop-opacity="1" /></linearGradient><linearGradient id="fs16" x1="0.999999821186066px" y1="-9.30413932564989E-08px" x2="0.999999642372131px" y2="0.999999642372131px"><stop offset="0%" stop-color="#FFFFFF" stop-opacity="0.5490196" /><stop offset="100%" stop-color="#FFFFFF" stop-opacity="0.1568628" /></linearGradient><clipPath id="cp1"><path d="M 237 31 L 429 31  429 103  237 103 z " /></clipPath><clipPath id="cp2"><path d="M 167 221 L 349 221  349 343  167 343 z " /></clipPath><clipPath id="cp3"><path d="M 7 221 L 149 221  149 293  7 293 z " /></clipPath><clipPath id="cp4"><path d="M 243 401 L 416 401  416 573  243 573 z " /></clipPath><clipPath id="cp5"><path d="M 531 499 L 610 499  610 571  531 571 z " /></clipPath><clipPath id="cp6"><path d="M 487 31 L 629 31  629 93  487 93 z " /></clipPath><clipPath id="cp7"><path d="M 474 131 L 626 131  626 190  474 190 z " /></clipPath><clipPath id="cp8"><path d="M 7 31 L 169 31  169 173  7 173 z " /></clipPath></defs><g transform="matrix(1 0 0 1 0 0)"><rect x="238px" y="32px" width="190px" height="70px" fill="url(#fs1)" /><path d="M 428 55.33333 C 333 55.33333  238 55.33333  238 72.83334 L 238 32  428 32  428 55.33333 z " fill="url(#fs2)" /><rect x="238px" y="32px" width="190px" height="70px" fill="none" stroke="#000000" stroke-width="1px" stroke-dashoffset="0" stroke-linejoin="round" stroke-miterlimit="10" /><g clip-path="url(#cp1)"><text x="289px" y="48.0911445617676px" font-family="Microsoft Sans Serif" font-size="10pt" font-weight="bold" font-style="italic" fill="#000000">CodeElement</text><line x1="238px" y1="53px" x2="428px" y2="53px" stroke="#000000" stroke-width="1px" stroke-dashoffset="0" stroke-linejoin="round" stroke-miterlimit="10" /><text x="240px" y="73.0911407470703px" font-family="Microsoft Sans Serif" font-size="10pt" fill="#000000">- id</text><text x="240px" y="90.0911407470703px" font-family="Microsoft Sans Serif" font-size="10pt" fill="#000000">- versions</text><line x1="238px" y1="94px" x2="428px" y2="94px" stroke="#000000" stroke-width="1px" stroke-dashoffset="0" stroke-linejoin="round" stroke-miterlimit="10" /></g></g><g transform="matrix(1 0 0 1 0 0)"><rect x="168px" y="222px" width="180px" height="120px" fill="url(#fs3)" /><path d="M 348 262 C 258 262  168 262  168 292 L 168 222  348 222  348 262 z " fill="url(#fs4)" /><rect x="168px" y="222px" width="180px" height="120px" fill="none" stroke="#000000" stroke-width="1px" stroke-dashoffset="0" stroke-linejoin="round" stroke-miterlimit="10" /><g clip-path="url(#cp2)"><text x="233px" y="238.09114074707px" font-family="Microsoft Sans Serif" font-size="10pt" font-weight="bold" fill="#000000">Method</text><line x1="168px" y1="243px" x2="348px" y2="243px" stroke="#000000" stroke-width="1px" stroke-dashoffset="0" stroke-linejoin="round" stroke-miterlimit="10" /><text x="170px" y="263.091156005859px" font-family="Microsoft Sans Serif" font-size="10pt" fill="#000000">- signature</text><text x="170px" y="280.091156005859px" font-family="Microsoft Sans Serif" font-size="10pt" fill="#000000">- isPrivate</text><text x="170px" y="296.091156005859px" font-family="Microsoft Sans Serif" font-size="10pt" fill="#000000">- isStatic</text><line x1="168px" y1="301px" x2="348px" y2="301px" stroke="#000000" stroke-width="1px" stroke-dashoffset="0" stroke-linejoin="round" stroke-miterlimit="10" /><text x="170px" y="318.091156005859px" font-family="Microsoft Sans Serif" font-size="10pt" fill="#000000">+ getReferencedFields ()</text><text x="170px" y="335.091156005859px" font-family="Microsoft Sans Serif" font-size="10pt" fill="#000000">+ getReferencedMethods ()</text></g></g><g transform="matrix(1 0 0 1 0 0)"><rect x="8px" y="222px" width="140px" height="70px" fill="url(#fs5)" /><path d="M 148 245.3333 C 78 245.3333  8 245.3333  8 262.8333 L 8 222  148 222  148 245.3333 z " fill="url(#fs6)" /><rect x="8px" y="222px" width="140px" height="70px" fill="none" stroke="#000000" stroke-width="1px" stroke-dashoffset="0" stroke-linejoin="round" stroke-miterlimit="10" /><g clip-path="url(#cp3)"><text x="61px" y="238.09114074707px" font-family="Microsoft Sans Serif" font-size="10pt" font-weight="bold" fill="#000000">Field</text><line x1="8px" y1="243px" x2="148px" y2="243px" stroke="#000000" stroke-width="1px" stroke-dashoffset="0" stroke-linejoin="round" stroke-miterlimit="10" /><text x="10px" y="263.091156005859px" font-family="Microsoft Sans Serif" font-size="10pt" fill="#000000">- signature</text><text x="10px" y="280.091156005859px" font-family="Microsoft Sans Serif" font-size="10pt" fill="#000000">- isPrivate</text><line x1="8px" y1="284px" x2="148px" y2="284px" stroke="#000000" stroke-width="1px" stroke-dashoffset="0" stroke-linejoin="round" stroke-miterlimit="10" /></g></g><g transform="matrix(1 0 0 1 0 0)"><rect x="244px" y="402px" width="171px" height="170px" fill="url(#fs7)" /><path d="M 415 458.6667 C 329.5 458.6667  244 458.6667  244 501.1667 L 244 402  415 402  415 458.6667 z " fill="url(#fs8)" /><rect x="244px" y="402px" width="171px" height="170px" fill="none" stroke="#000000" stroke-width="1px" stroke-dashoffset="0" stroke-linejoin="round" stroke-miterlimit="10" /><g clip-path="url(#cp4)"><text x="300px" y="418.091156005859px" font-family="Microsoft Sans Serif" font-size="10pt" font-weight="bold" fill="#000000">ApiClass</text><line x1="244px" y1="423px" x2="415px" y2="423px" stroke="#000000" stroke-width="1px" stroke-dashoffset="0" stroke-linejoin="round" stroke-miterlimit="10" /><text x="246px" y="443.091156005859px" font-family="Microsoft Sans Serif" font-size="10pt" fill="#000000">- packageName</text><text x="246px" y="460.091156005859px" font-family="Microsoft Sans Serif" font-size="10pt" fill="#000000">- simpleName</text><text x="246px" y="476.091156005859px" font-family="Microsoft Sans Serif" font-size="10pt" fill="#000000">- extends</text><text x="246px" y="493.091156005859px" font-family="Microsoft Sans Serif" font-size="10pt" fill="#000000">- implements</text><text x="246px" y="510.091156005859px" font-family="Microsoft Sans Serif" font-size="10pt" fill="#000000">- isPrivate</text><text x="246px" y="527.091125488281px" font-family="Microsoft Sans Serif" font-size="10pt" fill="#000000">- isAnonymous</text><line x1="244px" y1="531px" x2="415px" y2="531px" stroke="#000000" stroke-width="1px" stroke-dashoffset="0" stroke-linejoin="round" stroke-miterlimit="10" /><text x="246px" y="548.091125488281px" font-family="Microsoft Sans Serif" font-size="10pt" fill="#000000">+ getSourcePath ()</text><text x="246px" y="565.091125488281px" font-family="Microsoft Sans Serif" font-size="10pt" fill="#000000">+ getReferencedClasses ()</text></g></g><g transform="matrix(1 0 0 1 0 0)"><rect x="532px" y="500px" width="77px" height="70px" fill="url(#fs9)" /><path d="M 609 523.3333 C 570.5 523.3333  532 523.3333  532 540.8333 L 532 500  609 500  609 523.3333 z " fill="url(#fs10)" /><rect x="532px" y="500px" width="77px" height="70px" fill="none" stroke="#000000" stroke-width="1px" stroke-dashoffset="0" stroke-linejoin="round" stroke-miterlimit="10" /><g clip-path="url(#cp5)"><text x="544px" y="516.091125488281px" font-family="Microsoft Sans Serif" font-size="10pt" font-weight="bold" fill="#000000">Product</text><line x1="532px" y1="521px" x2="609px" y2="521px" stroke="#000000" stroke-width="1px" stroke-dashoffset="0" stroke-linejoin="round" stroke-miterlimit="10" /><text x="534px" y="541.091125488281px" font-family="Microsoft Sans Serif" font-size="10pt" fill="#000000">- name</text><line x1="532px" y1="546px" x2="609px" y2="546px" stroke="#000000" stroke-width="1px" stroke-dashoffset="0" stroke-linejoin="round" stroke-miterlimit="10" /></g></g><g transform="matrix(1 0 0 1 0 0)"><rect x="488px" y="32px" width="140px" height="60px" fill="url(#fs11)" /><path d="M 628 52 C 558 52  488 52  488 67 L 488 32  628 32  628 52 z " fill="url(#fs12)" /><rect x="488px" y="32px" width="140px" height="60px" fill="none" stroke="#000000" stroke-width="1px" stroke-dashoffset="0" stroke-linejoin="round" stroke-miterlimit="10" /><g clip-path="url(#cp6)"><text x="517px" y="48.0911445617676px" font-family="Microsoft Sans Serif" font-size="10pt" font-weight="bold" fill="#000000">Dependency</text><line x1="488px" y1="53px" x2="628px" y2="53px" stroke="#000000" stroke-width="1px" stroke-dashoffset="0" stroke-linejoin="round" stroke-miterlimit="10" /><text x="490px" y="73.0911407470703px" font-family="Microsoft Sans Serif" font-size="10pt" fill="#000000">- type</text><line x1="488px" y1="78px" x2="628px" y2="78px" stroke="#000000" stroke-width="1px" stroke-dashoffset="0" stroke-linejoin="round" stroke-miterlimit="10" /></g></g><g transform="matrix(1 0 0 1 0 0)"><rect x="475px" y="132px" width="150px" height="57px" fill="url(#fs13)" /><path d="M 625 151 C 550 151  475 151  475 165.25 L 475 132  625 132  625 151 z " fill="url(#fs14)" /><rect x="475px" y="132px" width="150px" height="57px" fill="none" stroke="#000000" stroke-width="1px" stroke-dashoffset="0" stroke-linejoin="round" stroke-miterlimit="10" /><g clip-path="url(#cp7)"><text x="481px" y="148.09114074707px" font-family="Microsoft Sans Serif" font-size="10pt" font-weight="bold" fill="#000000">TransitiveDependency</text><line x1="475px" y1="153px" x2="625px" y2="153px" stroke="#000000" stroke-width="1px" stroke-dashoffset="0" stroke-linejoin="round" stroke-miterlimit="10" /><line x1="475px" y1="161px" x2="625px" y2="161px" stroke="#000000" stroke-width="1px" stroke-dashoffset="0" stroke-linejoin="round" stroke-miterlimit="10" /><text x="477px" y="178.09114074707px" font-family="Microsoft Sans Serif" font-size="10pt" fill="#000000">+ getTransitiveFrom ()</text></g></g><g transform="matrix(1 0 0 1 0 0)"><rect x="8px" y="32px" width="160px" height="140px" fill="url(#fs15)" /><path d="M 168 78.66666 C 88 78.66666  8 78.66666  8 113.6667 L 8 32  168 32  168 78.66666 z " fill="url(#fs16)" /><rect x="8px" y="32px" width="160px" height="140px" fill="none" stroke="#000000" stroke-width="1px" stroke-dashoffset="0" stroke-linejoin="round" stroke-miterlimit="10" /><g clip-path="url(#cp8)"><text x="46px" y="45.58203125px" font-family="Microsoft Sans Serif" font-size="9pt" font-style="italic" fill="#1E1E1E">«enumeration»</text><text x="30px" y="63.0911445617676px" font-family="Microsoft Sans Serif" font-size="10pt" font-weight="bold" fill="#000000">DependencyType</text><line x1="8px" y1="68px" x2="168px" y2="68px" stroke="#000000" stroke-width="1px" stroke-dashoffset="0" stroke-linejoin="round" stroke-miterlimit="10" /><text x="10px" y="88.0911407470703px" font-family="Microsoft Sans Serif" font-size="10pt" fill="#000000">- METHOD_CALL</text><text x="10px" y="105.09114074707px" font-family="Microsoft Sans Serif" font-size="10pt" fill="#000000">- METHOD_OVERRIDE</text><text x="10px" y="121.09114074707px" font-family="Microsoft Sans Serif" font-size="10pt" fill="#000000">- FIELD_REFERENCE</text><text x="10px" y="138.09114074707px" font-family="Microsoft Sans Serif" font-size="10pt" fill="#000000">- CLASS_USAGE</text><text x="10px" y="155.09114074707px" font-family="Microsoft Sans Serif" font-size="10pt" fill="#000000">- CLASS_INHERITANCE</text><line x1="8px" y1="160px" x2="168px" y2="160px" stroke="#000000" stroke-width="1px" stroke-dashoffset="0" stroke-linejoin="round" stroke-miterlimit="10" /></g></g><g transform="matrix(1 0 0 1 0 0)"><polyline points="415,530 532,530 " fill="none" stroke="#000000" stroke-width="1px" stroke-dashoffset="0" stroke-linejoin="round" stroke-miterlimit="10" /><polygon points="532,530 518,525 502,530 518,535 " fill="#000000" /><text x="418px" y="550.091125488281px" font-family="Microsoft Sans Serif" font-size="10pt" fill="#000000">*</text><text x="414px" y="527.091125488281px" font-family="Microsoft Sans Serif" font-size="10pt" fill="#000000">+classes</text><text x="518px" y="525.091125488281px" font-family="Microsoft Sans Serif" font-size="10pt" fill="#000000">1</text><text x="478px" y="550.091125488281px" font-family="Microsoft Sans Serif" font-size="10pt" fill="#000000">+product</text></g><g transform="matrix(1 0 0 1 0 0)"><polyline points="183,342 183,482 244,482 " fill="none" stroke="#000000" stroke-width="1px" stroke-dashoffset="0" stroke-linejoin="round" stroke-miterlimit="10" /><polygon points="244,482 230,477 214,482 230,487 " fill="#000000" /><text x="190px" y="367.091156005859px" font-family="Microsoft Sans Serif" font-size="10pt" fill="#000000">*</text><text x="114px" y="367.091156005859px" font-family="Microsoft Sans Serif" font-size="10pt" fill="#000000">+methods</text></g><g transform="matrix(1 0 0 1 0 0)"><polyline points="78,292 78,482 244,482 " fill="none" stroke="#000000" stroke-width="1px" stroke-dashoffset="0" stroke-linejoin="round" stroke-miterlimit="10" /><polygon points="244,482 230,477 214,482 230,487 " fill="#000000" /><text x="85px" y="317.091156005859px" font-family="Microsoft Sans Serif" font-size="10pt" fill="#000000">*</text><text x="29px" y="317.091156005859px" font-family="Microsoft Sans Serif" font-size="10pt" fill="#000000">+fields</text><text x="230px" y="507.091156005859px" font-family="Microsoft Sans Serif" font-size="10pt" fill="#000000">1</text><text x="175px" y="477.091156005859px" font-family="Microsoft Sans Serif" font-size="10pt" fill="#000000">+apiClass</text></g><g transform="matrix(1 0 0 1 0 0)"><polyline points="488,54 458,42 428,53 " fill="none" stroke="#000000" stroke-width="1px" stroke-dashoffset="0" stroke-linejoin="round" stroke-miterlimit="10" /><line x1="428px" y1="53px" x2="448px" y2="55px" stroke="#000000" stroke-width="1px" stroke-dashoffset="0" stroke-linejoin="round" stroke-miterlimit="10" /><line x1="428px" y1="53px" x2="442px" y2="39px" stroke="#000000" stroke-width="1px" stroke-dashoffset="0" stroke-linejoin="round" stroke-miterlimit="10" /><text x="454px" y="67.0911407470703px" font-family="Microsoft Sans Serif" font-size="10pt" fill="#000000">1</text><text x="441px" y="37.0911445617676px" font-family="Microsoft Sans Serif" font-size="10pt" fill="#000000">+from</text></g><g transform="matrix(1 0 0 1 0 0)"><polyline points="488,77 458,92 428,74 " fill="none" stroke="#000000" stroke-width="1px" stroke-dashoffset="0" stroke-linejoin="round" stroke-miterlimit="10" /><line x1="428px" y1="74px" x2="439px" y2="91px" stroke="#000000" stroke-width="1px" stroke-dashoffset="0" stroke-linejoin="round" stroke-miterlimit="10" /><line x1="428px" y1="74px" x2="448px" y2="76px" stroke="#000000" stroke-width="1px" stroke-dashoffset="0" stroke-linejoin="round" stroke-miterlimit="10" /><text x="454px" y="87.0911407470703px" font-family="Microsoft Sans Serif" font-size="10pt" fill="#000000">1</text><text x="434px" y="108.09114074707px" font-family="Microsoft Sans Serif" font-size="10pt" fill="#000000">+to</text></g><g transform="matrix(1 0 0 1 0 0)"><polyline points="555,132 556,92 " fill="none" stroke="#000000" stroke-width="1px" stroke-dashoffset="0" stroke-linejoin="round" stroke-miterlimit="10" /><polygon points="556,92 549,111 562,111 " fill="#FFFFFF" /><polygon fill="none" points="556,92 549,111 562,111 " stroke="#000000" stroke-width="1px" stroke-dashoffset="0" stroke-linejoin="round" stroke-miterlimit="10" /></g><g transform="matrix(1 0 0 1 0 0)"><polyline points="78,222 78,182 398,182 398,102 " fill="none" stroke="#000000" stroke-width="1px" stroke-dashoffset="0" stroke-linejoin="round" stroke-miterlimit="10" /><polygon points="398,102 392,121 404,121 " fill="#FFFFFF" /><polygon fill="none" points="398,102 392,121 404,121 " stroke="#000000" stroke-width="1px" stroke-dashoffset="0" stroke-linejoin="round" stroke-miterlimit="10" /></g><g transform="matrix(1 0 0 1 0 0)"><polyline points="258,222 258,182 398,182 398,102 " fill="none" stroke="#000000" stroke-width="1px" stroke-dashoffset="0" stroke-linejoin="round" stroke-miterlimit="10" /><polygon points="398,102 392,121 404,121 " fill="#FFFFFF" /><polygon fill="none" points="398,102 392,121 404,121 " stroke="#000000" stroke-width="1px" stroke-dashoffset="0" stroke-linejoin="round" stroke-miterlimit="10" /></g><g transform="matrix(1 0 0 1 0 0)"><polyline points="398,402 398,322 398,102 " fill="none" stroke="#000000" stroke-width="1px" stroke-dashoffset="0" stroke-linejoin="round" stroke-miterlimit="10" /><polygon points="398,102 392,121 404,121 " fill="#FFFFFF" /><polygon fill="none" points="398,102 392,121 404,121 " stroke="#000000" stroke-width="1px" stroke-dashoffset="0" stroke-linejoin="round" stroke-miterlimit="10" /></g><g transform="matrix(1 0 0 1 0 0)"><polyline points="570,500 570,321 398,322 398,102 " fill="none" stroke="#000000" stroke-width="1px" stroke-dashoffset="0" stroke-linejoin="round" stroke-miterlimit="10" /><polygon points="398,102 392,121 404,121 " fill="#FFFFFF" /><polygon fill="none" points="398,102 392,121 404,121 " stroke="#000000" stroke-width="1px" stroke-dashoffset="0" stroke-linejoin="round" stroke-miterlimit="10" /></g></svg>